<?xml version="1.0" encoding="utf-8"?>
<!-- Generator: Adobe Illustrator 19.0.0, SVG Export Plug-In . SVG Version: 6.00 Build 0)  -->
<svg version="1.1" id="Layer_76" xmlns="http://www.w3.org/2000/svg" xmlns:xlink="http://www.w3.org/1999/xlink" x="0px" y="0px"
	 viewBox="0 0 400 400" style="enable-background:new 0 0 400 400;" xml:space="preserve">
<style type="text/css">
	.st0{fill:#F8F9FC;}
	.st1{fill:#B9C5D6;stroke:#2F0D00;stroke-width:1.2828;stroke-miterlimit:10;}
	.st2{fill:#99CF43;}
	.st3{fill:#EB6E7A;}
	.st4{fill:#FDC135;}
	.st5{fill:#FD9A47;}
</style>
<g id="XMLID_118_">
	<ellipse id="XMLID_849_" class="st0" cx="200" cy="200" rx="200" ry="200"/>
	<path id="XMLID_631_" class="st1" d="M303.6,355c1,1.4,4.9,7.4,3.7,15.6c-0.9,6.5-4.5,10.6-5.9,12c-0.5-0.2-1.9-1-2.8-2.8
		c-1.2-2.6,0-5,0.2-5.3c0.1-0.8,0.2-2.6-0.8-4.5c-0.7-1.4-1.6-2.3-2.2-2.8c-0.7,2.5-1.3,5.1-2,7.6c-0.2,0.9-0.5,1.9-0.7,2.8
		c-0.7-2.2-1.5-5.3-1.6-9.1c-0.1-6.2,1.9-11,3.2-13.6C297.7,355,300.7,355,303.6,355z"/>
	<path id="XMLID_626_" class="st1" d="M277.2,206c-1-9.7,4.2-18.6,10.9-19.4c6.5-0.7,12.4,6.3,12.9,15.8c0.7,24.5,1.4,48.9,2.1,73.4
		c0.5,5.9-1.6,11.3-4.7,13.3c-4.2,2.6-10.2-1.1-12-9.2C283.3,255.3,280.3,230.6,277.2,206z"/>
	<path id="XMLID_618_" class="st1" d="M305.4,283.7c-0.9-6.2-5-11-9.4-11.4c-5.2-0.6-10.1,5-10,12.6c2.8,22.9,5.6,45.8,8.5,68.7
		c0.8,3.3,3.3,5.4,5.8,4.9c2.3-0.5,3.9-3,3.8-6.1C304.5,329.5,305,306.6,305.4,283.7z"/>
	<path id="XMLID_1166_" class="st1" d="M202.8,320.2c-0.7,7.1-1.7,17.1-3.5,29.2c2.5,2.7,18,18.4,42.8,18.1
		c24.2-0.2,39.2-15.4,41.8-18.1c-1.1-5.8-2.8-14.7-4-25.7c-0.3-2.6-0.6-5.1-0.9-7.6h-75.8C203.1,317.5,202.9,318.9,202.8,320.2z"/>
	<path id="XMLID_1165_" class="st1" d="M281.9,233.7c2.1-4.8,6.5-13.7,5.9-25.8c-0.4-7.9-2.8-14.2-4.7-18.1
		c-2.8-1.5-7.2-3.7-12.8-5.9c-9-3.6-13.3-3.9-17.1-7.9c-3.6-3.8-5-8.3-5.5-11.4c-4.9,0-9.7,0-14.6,0c-0.4,3.4-1.6,8.5-5.5,12.3
		c-3.6,3.6-7.6,3.6-14.6,6.4c-3.6,1.5-8.8,4-14.8,8.4c-1.4,3.6-3.1,9.1-3.1,15.8c0,10.9,4.6,19,6.1,22c8.2,15.9,6.3,38.8,2.1,83.6
		H279C274.8,276.8,272.8,254.7,281.9,233.7z"/>
	<path id="XMLID_440_" class="st1" d="M217.2,135.8c-1.8-15.3,10.4-28.2,24-28c12.8,0.2,24.2,12,23.4,26.5
		c0.2,0.9,3.5,19.1-9.2,30.1c-5.9,5.1-12.6,6.3-15.8,6.6c-2.3-0.4-11-2.2-17.3-10.2C213.8,150,216.8,137.3,217.2,135.8z"/>
	<g id="XMLID_2244_">
		<path id="XMLID_74_" class="st2" d="M139.1,307.7l-16.5,28.6c23.1,13.3,49.9,21,78.4,21c0.1,0,0.2,0,0.3,0v-32.9
			C178.6,324.4,157.3,318.3,139.1,307.7z"/>
	</g>
	<g id="XMLID_2241_">
		<path id="XMLID_534_" class="st3" d="M201.2,76V43c-0.1,0-0.2,0-0.3,0c-86.8,0-157.2,70.4-157.2,157.2H77
			C77.1,131.6,132.7,76,201.2,76z"/>
	</g>
	<g id="XMLID_2238_">
		<path id="XMLID_324_" class="st4" d="M93.7,262.3L65,278.9c13.8,23.8,33.7,43.6,57.5,57.4l16.5-28.6
			C120.3,296.8,104.6,281.1,93.7,262.3z"/>
	</g>
	<g id="XMLID_2235_">
		<path id="XMLID_625_" class="st5" d="M77,200.2C77,200.2,77,200.1,77,200.2l-33.3-0.1c0,28.7,7.7,55.6,21.2,78.8l28.7-16.6
			C83.1,244,77,222.8,77,200.2z"/>
	</g>
</g>
</svg>
