<?xml version="1.0" encoding="utf-8"?>
<!-- Generator: Adobe Illustrator 19.0.0, SVG Export Plug-In . SVG Version: 6.00 Build 0)  -->
<svg version="1.1" xmlns="http://www.w3.org/2000/svg" xmlns:xlink="http://www.w3.org/1999/xlink" x="0px" y="0px"
	 viewBox="0 0 400 400" style="enable-background:new 0 0 400 400;" xml:space="preserve">
<style type="text/css">
	.st0{fill:#F9FAFD;}
	.st1{fill:#2FA9F4;stroke:#2F0D00;stroke-width:1.2828;stroke-miterlimit:10;}
	.st2{opacity:0.59;}
	.st3{fill:#2FA9F4;}
</style>
<g id="Layer_47">
</g>
<g id="TrunkRot2">
	<g id="XMLID_103_">
		<g id="XMLID_1032_">
			<path id="XMLID_1326_" class="st0" d="M200,1c26.9,0,52.9,5.3,77.4,15.6c23.7,10,45,24.4,63.2,42.6
				c18.3,18.3,32.6,39.6,42.6,63.3c10.4,24.5,15.6,50.6,15.6,77.5s-5.3,52.9-15.6,77.5c-10,23.7-24.4,45-42.6,63.3
				c-18.3,18.3-39.6,32.6-63.2,42.6C252.9,393.7,226.9,399,200,399c-26.9,0-52.9-5.3-77.4-15.6c-23.7-10-45-24.4-63.2-42.6
				c-18.3-18.3-32.6-39.6-42.6-63.3C6.3,252.9,1.1,226.9,1.1,200s5.3-52.9,15.6-77.5c10-23.7,24.4-45,42.6-63.3
				C77.6,41,98.9,26.7,122.6,16.6C147.1,6.3,173.2,1,200,1 M200,0C89.6,0,0.1,89.5,0.1,200s89.5,200,200,200s200-89.5,200-200
				S310.5,0,200,0L200,0z"/>
		</g>
		<path id="XMLID_880_" class="st1" d="M90.7,133.7c-0.2-2.5-0.8-13,7.6-18.4c6.6-4.3,15.1-2.9,18.3-2.2c0.5,0.9,1.9,3.5,1.6,6.1
			c-0.4,3.8-4.2,4.2-4.7,4.3c-0.8,0.6-2.4,2-2.6,4.9c-0.2,2.1,0.4,4.1,0.8,5.3c3-1.3,6.1-2.5,9.1-3.8c1.1-0.5,2.3-0.9,3.4-1.4
			c-0.8,2.9-2.2,6.6-5.3,9.9c-5,5.4-11.8,6.9-15.7,7.3C99,141.8,94.8,137.8,90.7,133.7z"/>
		<path id="XMLID_879_" class="st1" d="M308.4,133.7c0.2-2.5,0.8-13-7.6-18.4c-6.6-4.3-15.1-2.9-18.3-2.2c-0.5,0.9-1.9,3.5-1.6,6.1
			c0.4,3.8,4.2,4.2,4.7,4.3c0.8,0.6,2.4,2,2.6,4.9c0.2,2.1-0.4,4.1-0.8,5.3c-3-1.3-6.1-2.5-9.1-3.8c-1.1-0.5-2.3-0.9-3.4-1.4
			c0.8,2.9,2.2,6.6,5.3,9.9c5,5.4,11.8,6.9,15.7,7.3C300.1,141.8,304.2,137.8,308.4,133.7z"/>
		<path id="XMLID_878_" class="st1" d="M322.3,193.9c-2.8,4-11.2,6.7-20.5,6.6c-9.1-0.1-17.2-2.7-19.9-6.6c2.3-19,4.6-38,6.8-57.1
			c2.2-2.5,7.6-4.1,13.7-4.1c6,0,11.5,1.6,13.7,4.1C318.2,155.9,320.3,174.9,322.3,193.9z"/>
		<path id="XMLID_877_" class="st1" d="M78,193.9c2.8,4,11.2,6.7,20.5,6.6c9.1-0.1,17.2-2.7,19.9-6.6c-2.3-19-4.6-38-6.8-57
			c-2.2-2.5-7.6-4.1-13.7-4.1s-11.5,1.6-13.7,4.1C82.1,155.9,80,174.9,78,193.9z"/>
		<path id="XMLID_869_" class="st1" d="M267,259.6c-45.2,0-90.4,0-135.6,0c-25.7-11.7-44.5-33.8-46-57.8
			c-2.3-35.7,33.4-74.9,85.2-75.9c17.6,0,35.2,0,52.9,0c68.6,2,109.8,47.5,105.7,80.2C326.2,229.6,299.6,250.2,267,259.6z"/>
		<path id="XMLID_868_" class="st1" d="M332.9,209.3c1.7,18-12.6,33.6-29.8,33.6s-31.6-15.5-29.8-33.6c0.7-21.5,8.7-38.9,21.8-43.5
			c2.2-0.8,4.9-1.3,8.1-1.2c2.9-0.3,5.4,0,7.5,0.6C323.3,168.8,331.7,186.6,332.9,209.3z"/>
		<path id="XMLID_867_" class="st1" d="M67.4,209.3c-1.7,18,12.6,33.6,29.8,33.6c17.2,0,31.6-15.5,29.8-33.6
			c-0.7-21.5-8.7-38.9-21.8-43.5c-2.2-0.8-4.9-1.3-8.1-1.2c-2.9-0.3-5.4,0-7.5,0.6C77,168.8,68.6,186.6,67.4,209.3z"/>
		<g id="XMLID_2496_" class="st2">
			<polygon id="XMLID_2501_" class="st3" points="195.4,85.6 184.1,105.8 193.5,105.8 193.5,156.3 206.8,156.3 206.8,105.8 
				216.2,105.8 208.3,91.7 200.2,77.2 			"/>
			<rect id="XMLID_2500_" x="193.5" y="177.6" class="st3" width="13.3" height="7.4"/>
			<rect id="XMLID_2499_" x="193.5" y="192" class="st3" width="13.3" height="7.4"/>
			<rect id="XMLID_2498_" x="193.5" y="206.3" class="st3" width="13.3" height="8.1"/>
			<rect id="XMLID_2497_" x="193.5" y="163.3" class="st3" width="13.3" height="7.4"/>
		</g>
		<path id="XMLID_2495_" class="st1" d="M149.2,209.2c-4.2-2-6.4-6.3-5.6-10.3c0.8-4,4.5-5.9,5-6.2c11-36.2,21-45.9,28.3-47.6
			c1.9-0.4,8.5-1.6,15.1-6.5c4.2-3.2,6.8-6.8,8.4-9.3c2.2,3,5.7,7.4,11.2,11.2c6.4,4.5,11.9,5.8,14.4,6.7c7,2.7,15.3,12.2,19.6,43.6
			c0.5,0.3,4.6,2.5,5.3,7.2c0.6,4.2-1.7,8.5-5.9,10.6c-0.4,4-2.8,21.7-18,34.2c-3.1,2.6-13.3,10.6-28.4,10.9
			c-12,0.2-20.7-4.7-23.9-6.5C154.9,235.6,150.1,213.5,149.2,209.2z"/>
	</g>
</g>
</svg>
