<?xml version="1.0" encoding="utf-8"?>
<!-- Generator: Adobe Illustrator 19.0.0, SVG Export Plug-In . SVG Version: 6.00 Build 0)  -->
<svg version="1.1" xmlns="http://www.w3.org/2000/svg" xmlns:xlink="http://www.w3.org/1999/xlink" x="0px" y="0px"
	 viewBox="0 0 400 400" style="enable-background:new 0 0 400 400;" xml:space="preserve">
<style type="text/css">
	.st0{fill:#F9FAFD;}
	.st1{fill:#9575F9;stroke:#2F0D00;stroke-width:1.2828;stroke-miterlimit:10;}
</style>
<g id="RUpperarmFlx2">
	<g id="XMLID_269_">
		<g id="XMLID_334_">
			<path id="XMLID_344_" class="st0" d="M200,1c26.9,0,52.9,5.3,77.4,15.6c23.7,10,45,24.4,63.2,42.6c18.3,18.3,32.6,39.6,42.6,63.3
				c10.4,24.5,15.6,50.6,15.6,77.5s-5.3,52.9-15.6,77.5c-10,23.7-24.4,45-42.6,63.3c-18.3,18.3-39.6,32.6-63.2,42.6
				C252.9,393.7,226.9,399,200,399s-52.9-5.3-77.4-15.6c-23.7-10-45-24.4-63.2-42.6c-18.3-18.3-32.6-39.6-42.6-63.3
				C6.3,252.9,1.1,226.9,1.1,200s5.3-52.9,15.6-77.5c10-23.7,24.4-45,42.6-63.3C77.6,41,98.9,26.7,122.6,16.6
				C147.1,6.3,173.2,1,200,1 M200,0C89.6,0,0.1,89.5,0.1,200s89.5,200,200,200s200-89.5,200-200S310.5,0,200,0L200,0z"/>
		</g>
		<path id="XMLID_292_" class="st1" d="M187.5,196.5c-0.8-10.9,7.9-20.2,18.4-20.4c10.1-0.1,18.8,8.3,18.9,18.8
			c-0.7,27.2-1.5,54.4-2.2,81.6c0.3,6.6-3.2,12.4-8.3,14.2c-6.7,2.4-15.8-2.2-18-11.4C193.3,251.7,190.4,224.1,187.5,196.5z"/>
		<path id="XMLID_282_" class="st1" d="M223.2,279.3c-0.7-7-5.9-12.4-12.2-13.2c-7.4-0.9-14.9,5.1-15.6,13.6
			c1.6,25.6,3.1,51.2,4.7,76.8c0.7,3.7,4.2,6.2,7.7,5.8c3.3-0.4,5.9-3.2,6.1-6.6C217.1,330.2,220.2,304.7,223.2,279.3z"/>
		<path id="XMLID_271_" class="st1" d="M209.4,396.2c2.4-3,6.2-8.8,8-16.9c2.2-9.7,0.4-17.7-0.7-21.5c-1-0.6-4-2.1-7.5-1.2
			c-4.4,1-7.9,5.3-8.4,10.7c-0.5,1.8,0,3.8,1.4,5c1.4,1.2,3.4,1.6,5.2,0.8c0.5,4.1,1,8.5,1.4,13
			C209.1,389.5,209.3,392.9,209.4,396.2z"/>
	</g>
</g>
<g id="Layer_47">
</g>
<g id="LUpperarmAbd3">
</g>
<g id="Layer_32">
</g>
</svg>
