<?xml version="1.0" encoding="utf-8"?>
<!-- Generator: Adobe Illustrator 19.0.0, SVG Export Plug-In . SVG Version: 6.00 Build 0)  -->
<svg version="1.1" id="Layer_39" xmlns="http://www.w3.org/2000/svg" xmlns:xlink="http://www.w3.org/1999/xlink" x="0px" y="0px"
	 viewBox="0 0 400 400" style="enable-background:new 0 0 400 400;" xml:space="preserve">
<style type="text/css">
	.st0{fill:#F8F9FC;}
	.st1{fill:#B9C5D6;stroke:#2F0D00;stroke-width:1.2828;stroke-miterlimit:10;}
	.st2{fill:#99CF43;}
	.st3{fill:#FDC135;}
	.st4{fill:#EB6E7A;}
</style>
<ellipse id="XMLID_537_" class="st0" cx="200.5" cy="199.3" rx="200" ry="200"/>
<path id="XMLID_124_" class="st1" d="M142.6,36c4.7-12.8,21.5-21.7,40.2-21.4c17.9,0.3,33.6,9.1,38.1,21.4
	c-1.3,49.3-2.7,98.6-4,147.8c-1.7,8.8-12.5,15.4-25.2,15.4c-12.7,0.1-23.7-6.6-25.5-15.4C158.4,134.6,150.5,85.3,142.6,36z"/>
<g id="XMLID_205_">
	<g id="XMLID_223_">
		<path id="XMLID_263_" class="st2" d="M200,325.2c-22.9,0-44.3-6.2-62.7-17l-16.5,28.6c23.2,13.6,50.2,21.3,79,21.3
			c18.8,0,36.9-3.3,53.7-9.4l-11.1-30.8C229.1,322.5,214.8,325.2,200,325.2z"/>
	</g>
	<g id="XMLID_234_">
		<path id="XMLID_260_" class="st3" d="M242.3,317.8l11.1,30.8c17.5-6.4,33.5-15.8,47.4-27.5l-21-25
			C268.8,305.3,256.1,312.7,242.3,317.8z"/>
	</g>
	<g id="XMLID_239_">
		<path id="XMLID_240_" class="st4" d="M323.9,201.3c0,38-17.1,72-44,94.7l21,25.1c34-28.8,55.7-71.7,55.7-119.8L323.9,201.3
			C323.9,201.2,323.9,201.3,323.9,201.3z"/>
	</g>
	<g id="XMLID_245_">
		<path id="XMLID_257_" class="st3" d="M97.5,270.9l-27.3,18.7c13.1,19.2,30.4,35.3,50.5,47.1l16.5-28.6
			C121.4,298.8,107.8,286,97.5,270.9z"/>
	</g>
	<g id="XMLID_251_">
		<path id="XMLID_235_" class="st4" d="M97.5,270.9C84,251,76.1,227.1,76.1,201.3c0,0,0,0,0,0l-33.2,0c0,32.8,10.1,63.2,27.3,88.4
			L97.5,270.9z"/>
	</g>
</g>
</svg>
