<?xml version="1.0" encoding="utf-8"?>
<!-- Generator: Adobe Illustrator 19.0.0, SVG Export Plug-In . SVG Version: 6.00 Build 0)  -->
<svg version="1.1" id="Layer_41" xmlns="http://www.w3.org/2000/svg" xmlns:xlink="http://www.w3.org/1999/xlink" x="0px" y="0px"
	 viewBox="0 0 400 400" style="enable-background:new 0 0 400 400;" xml:space="preserve">
<style type="text/css">
	.st0{fill:#F8F9FC;}
	.st1{fill:#B9C5D6;stroke:#2F0D00;stroke-width:1.2828;stroke-miterlimit:10;}
	.st2{fill:#99CF43;}
	.st3{fill:#FDC135;}
	.st4{fill:#EB6E7A;}
</style>
<ellipse id="XMLID_587_" class="st0" cx="200.5" cy="199.3" rx="200" ry="200"/>
<path id="XMLID_583_" class="st1" d="M258.4,36c-4.7-12.8-21.5-21.7-40.2-21.4c-17.9,0.3-33.6,9.1-38.1,21.4
	c1.3,49.3,2.7,98.6,4,147.8c1.7,8.8,12.5,15.4,25.2,15.4c12.7,0.1,23.7-6.6,25.5-15.4C242.6,134.6,250.5,85.3,258.4,36z"/>
<g id="XMLID_552_">
	<g id="XMLID_580_">
		<path id="XMLID_666_" class="st2" d="M201,325.2c22.9,0,44.3-6.2,62.7-17l16.5,28.6c-23.2,13.6-50.2,21.3-79,21.3
			c-18.8,0-36.9-3.3-53.7-9.4l11.1-30.8C171.9,322.5,186.2,325.2,201,325.2z"/>
	</g>
	<g id="XMLID_574_">
		<path id="XMLID_667_" class="st3" d="M158.7,317.8l-11.1,30.8c-17.5-6.4-33.5-15.8-47.4-27.5l21-25
			C132.2,305.3,144.9,312.7,158.7,317.8z"/>
	</g>
	<g id="XMLID_560_">
		<path id="XMLID_668_" class="st4" d="M77.1,201.3c0,38,17.1,72,44,94.7l-21,25.1c-34-28.8-55.7-71.7-55.7-119.8L77.1,201.3
			C77.1,201.2,77.1,201.3,77.1,201.3z"/>
	</g>
	<g id="XMLID_556_">
		<path id="XMLID_669_" class="st3" d="M303.5,270.9l27.3,18.7c-13.1,19.2-30.4,35.3-50.5,47.1l-16.5-28.6
			C279.6,298.8,293.2,286,303.5,270.9z"/>
	</g>
	<g id="XMLID_553_">
		<path id="XMLID_670_" class="st4" d="M303.5,270.9c13.5-19.8,21.4-43.8,21.4-69.6c0,0,0,0,0,0l33.2,0c0,32.8-10.1,63.2-27.3,88.4
			L303.5,270.9z"/>
	</g>
</g>
</svg>
