<?xml version="1.0" encoding="utf-8"?>
<!-- Generator: Adobe Illustrator 19.0.0, SVG Export Plug-In . SVG Version: 6.00 Build 0)  -->
<svg version="1.1" id="Layer_82" xmlns="http://www.w3.org/2000/svg" xmlns:xlink="http://www.w3.org/1999/xlink" x="0px" y="0px"
	 viewBox="0 0 400 400" style="enable-background:new 0 0 400 400;" xml:space="preserve">
<style type="text/css">
	.st0{fill:#F8F9FC;}
	.st1{fill:#B9C5D6;}
	.st2{fill:#2F0D00;}
	.st3{fill:#EB6E7A;}
	.st4{fill:#FDC135;}
	.st5{fill:#99CF43;}
	.st6{fill:#FD9A47;}
</style>
<g id="XMLID_1_">
	<ellipse id="XMLID_66_" class="st0" cx="200" cy="200" rx="200" ry="200"/>
	<g id="XMLID_142_">
		<path id="XMLID_143_" class="st1" d="M188.5,293.4c0-12.7-0.9-22.9-1.7-29.5c-2.7-22.9-7.3-33.5-8.5-56.1
			c-0.4-8.6-0.2-15.6,0-19.8c1.9-6.9,5-10.7,7.9-13c4.2-3.3,6.3-2.8,8.5-5.7c5.2-6.7-2.5-15.8,1.7-21c3.8-4.7,16-4,20.4,1.7
			c4.4,5.7-2.3,11.9,1.1,22.7c2.1,6.3,5.1,8.1,13.6,17c4.3,4.6,10,11.5,15.3,21.5c8.9,24.7,2.6,74.6-1.7,128.3
			c-1.8,22.2-21.8,36.6-39.1,33.1c-13.7-2.7-24.9-16.4-25.5-33.1c0.2-5.7,0.8-11.8,1.7-18.4C183.7,310.7,186,301.4,188.5,293.4z"/>
		<path id="XMLID_145_" class="st2" d="M211.3,373.8c-1.8,0-3.6-0.2-5.4-0.5c-14.5-2.9-25.4-17.1-26-33.8c0.3-6.2,0.8-12.4,1.7-18.5
			c1.3-9.4,3.4-18.7,6.2-27.8c0-9.9-0.6-19.7-1.7-29.3c-1.2-9.8-2.7-17.3-4.1-24.5c-1.9-9.6-3.7-18.7-4.4-31.6
			c-0.3-6.6-0.3-13.3,0-19.9l0-0.1c1.6-5.9,4.3-10.4,8.2-13.4c2-1.6,3.5-2.3,4.8-2.9c1.5-0.7,2.5-1.2,3.6-2.7
			c2.5-3.3,1.7-7.3,1-11.2c-0.7-3.7-1.4-7.1,0.7-9.8c1.8-2.2,5.3-3.4,9.4-3.3c5,0.1,9.6,2,11.9,5c2.4,3.1,1.8,6.3,1,9.9
			c-0.7,3.6-1.5,7.7,0.2,12.9c1.5,4.7,3.7,6.8,8.3,11.5c1.5,1.5,3.1,3.1,5.1,5.2c5.9,6.2,11.1,13.5,15.4,21.7
			c7.6,21.1,4.3,59.6,0.4,104.2c-0.7,8-1.4,16.2-2.1,24.5c-0.9,10.9-6.3,20.9-14.8,27.3C225,371.4,218,373.8,211.3,373.8z
			 M178.9,188.1c-0.3,6.5-0.3,13.1,0,19.7c0.7,12.9,2.5,21.9,4.4,31.4c1.4,7.3,2.9,14.8,4.1,24.6c1.1,9.6,1.7,19.5,1.7,29.5l0,0.2
			c-2.8,9-4.9,18.3-6.2,27.7c-0.9,6-1.4,12.2-1.7,18.3c0.5,16,11,29.7,25,32.5c8,1.6,16.7-0.7,24-6.2c8.3-6.2,13.5-15.9,14.3-26.4
			c0.7-8.3,1.4-16.5,2.1-24.5c3.8-44.4,7.2-82.8-0.3-103.5c-4.2-8-9.3-15.2-15.2-21.3c-2-2.1-3.6-3.7-5.1-5.2c-4.8-4.8-7-7-8.6-12
			c-1.8-5.5-0.9-10-0.2-13.6c0.7-3.5,1.2-6.3-0.8-8.9c-2.1-2.7-6.3-4.5-11-4.5c-3.8,0-6.9,1-8.4,2.9c-1.8,2.2-1.2,5.4-0.5,8.7
			c0.8,4,1.7,8.4-1.2,12.2c-1.3,1.7-2.6,2.3-4.1,3c-1.2,0.6-2.7,1.3-4.5,2.7C183,178.3,180.4,182.6,178.9,188.1z"/>
	</g>
	<g id="XMLID_136_">
		<path id="XMLID_138_" class="st1" d="M185.1,120.6c-2-17,11.6-31.4,26.6-31.2c14.2,0.2,26.9,13.3,26.1,29.5
			c0.2,1,3.9,21.3-10.2,33.4c-6.6,5.7-14,7-17.6,7.4c-2.6-0.5-12.2-2.5-19.3-11.3C181.3,136.5,184.6,122.3,185.1,120.6z"/>
		<path id="XMLID_139_" class="st2" d="M210,160.4L210,160.4c-3.8-0.7-13-3.1-19.7-11.6c-9.2-11.6-6.5-25.3-5.8-28.2
			c-0.9-8.2,1.7-16.5,7.3-22.7c5.3-5.9,12.6-9.2,20-9.1c7,0.1,13.8,3.3,18.9,8.7c5.4,5.8,8.2,13.4,7.8,21.4
			c0.3,1.7,3.7,21.7-10.4,33.9C221.8,158.1,214.8,159.9,210,160.4L210,160.4z M211.4,90.1c-6.9,0-13.7,3.1-18.7,8.7
			c-5.4,5.9-7.9,13.9-7,21.8l0,0.1l0,0.1c-0.6,2.6-3.4,15.9,5.5,27.2c6.4,8.1,15.2,10.4,18.8,11.1c4.6-0.5,11.3-2.1,17.1-7.2
			c13.9-12,10.2-32,10-32.8l0-0.1l0-0.1c0.4-7.6-2.2-14.9-7.4-20.5c-4.8-5.2-11.4-8.2-18-8.3C211.6,90.1,211.5,90.1,211.4,90.1z"/>
	</g>
	<g id="XMLID_947_">
		<path id="XMLID_542_" class="st3" d="M356,199.5c0-86.2-69.8-156-156-156h-0.3v32.8c68.1,0,123.3,55.2,123.3,123.3L356,199.5
			L356,199.5z"/>
	</g>
	<g id="XMLID_943_">
		<path id="XMLID_345_" class="st4" d="M310.1,310l-23.2-23.2c-12.5,12.5-27.7,22.4-44.7,28.6l11.3,30.8
			C275,338.3,294.3,325.8,310.1,310z"/>
	</g>
	<g id="XMLID_940_">
		<path id="XMLID_71_" class="st5" d="M199.7,355.5h0.3c10.1,0,20-1,29.6-2.8c2.2-0.4,4.3-0.9,6.5-1.4c5.9-1.4,11.8-3.1,17.4-5.2
			l-11.3-30.8c-2.8,1-5.8,2-8.7,2.8c-0.8,0.2-1.7,0.5-2.5,0.7c-10,2.6-20.5,4-31.3,4c-10.5,0-20.7-1.3-30.4-3.8c-4-1-8-2.2-11.8-3.6
			l-11.2,30.6c9.1,3.3,18.6,5.8,28.4,7.4C182.9,354.8,191.2,355.5,199.7,355.5z"/>
	</g>
	<path id="XMLID_875_" class="st6" d="M356,199.6h-33c0,0,0,0,0,0c0,34-13.8,64.9-36.1,87.2l23.2,23.2
		C338.5,281.8,356,242.7,356,199.6z"/>
	<path id="XMLID_864_" class="st4" d="M112.5,286.7l-23,23c15.9,15.9,35.2,28.4,56.8,36.3l11.2-30.6
		C140.4,309.2,125.1,299.3,112.5,286.7z"/>
</g>
</svg>
