<?xml version="1.0" encoding="utf-8"?>
<!-- Generator: Adobe Illustrator 19.0.0, SVG Export Plug-In . SVG Version: 6.00 Build 0)  -->
<svg version="1.1" xmlns="http://www.w3.org/2000/svg" xmlns:xlink="http://www.w3.org/1999/xlink" x="0px" y="0px"
	 viewBox="0 0 400 400" style="enable-background:new 0 0 400 400;" xml:space="preserve">
<style type="text/css">
	.st0{fill:#F9FAFD;}
	.st1{fill:#9575F9;stroke:#2F0D00;stroke-width:1.2828;stroke-miterlimit:10;}
</style>
<g id="Layer_47">
</g>
<g id="Layer_38">
	<g id="XMLID_1299_">
		<path id="XMLID_484_" class="st0" d="M200,1c26.9,0,52.9,5.3,77.4,15.6c23.7,10,45,24.4,63.2,42.6c18.3,18.3,32.6,39.6,42.6,63.3
			c10.4,24.5,15.6,50.6,15.6,77.5s-5.3,52.9-15.6,77.5c-10,23.7-24.4,45-42.6,63.3s-39.6,32.6-63.2,42.6
			C252.9,393.7,226.9,399,200,399s-52.9-5.3-77.4-15.6c-23.7-10-45-24.4-63.2-42.6s-32.6-39.6-42.6-63.3C6.3,252.9,1,226.9,1,200
			s5.3-52.9,15.6-77.5c10-23.7,24.4-45,42.6-63.3C77.6,41,98.9,26.7,122.6,16.6C147.1,6.3,173.1,1,200,1 M200,0C89.6,0,0,89.5,0,200
			c0,110.5,89.5,200,200,200s200-89.5,200-200C400,89.5,310.4,0,200,0L200,0z"/>
	</g>
	<path id="XMLID_439_" class="st1" d="M199.6,207.4c-20.8-1.3-30.8-10.2-34.4-14c-5.5-5.7-8.5-13.2-14.4-28
		c-4.4-11.1-7.3-20.4-9.2-26.9c-3.6-5.3-4.6-11.1-2.4-13.4c2.5-2.8,10.5-2.1,17.5,4.8c3.4,7.5,6.7,14.9,10.1,22.4l1.2-87.1
		c-0.2-8,4.6-13.3,8-13.2c3.3,0.1,7.6,5.5,7.2,13.2c-0.1,20.4-0.3,40.8-0.4,61.2l3.2-0.4l0.4-72c-0.4-5.7,4.2-10,8.4-9.6
		c3.8,0.3,7.3,4.5,6.8,9.6c0,24.8,0,49.5,0,74.3l2.4-1.1V63.9c-0.5-6.5,4.1-11,7.6-10.8c3.3,0.2,7.3,4.7,6.6,10.8
		c0.7,21.2,1.4,42.4,2.2,63.6h2.4V88.7c-0.5-5.3,3.4-9.5,7.2-9.6c4-0.1,8.4,4.3,7.6,10c0,27.6,0,55.2,0,82.8c0,1.6-0.2,19.9-15.2,30
		C212.9,208.3,202.9,207.7,199.6,207.4z"/>
</g>
</svg>
