<?xml version="1.0" encoding="utf-8"?>
<!-- Generator: Adobe Illustrator 19.0.0, SVG Export Plug-In . SVG Version: 6.00 Build 0)  -->
<svg version="1.1" id="Layer_79" xmlns="http://www.w3.org/2000/svg" xmlns:xlink="http://www.w3.org/1999/xlink" x="0px" y="0px"
	 viewBox="0 0 400 400" style="enable-background:new 0 0 400 400;" xml:space="preserve">
<style type="text/css">
	.st0{fill:#F8F9FC;}
	.st1{fill:#B9C5D6;stroke:#2F0D00;stroke-width:1.2828;stroke-miterlimit:10;}
	.st2{fill:#99CF43;}
	.st3{fill:#FDC135;}
	.st4{fill:#FD9A47;}
	.st5{fill:#EB6E7A;}
</style>
<g id="XMLID_90_">
	<ellipse id="XMLID_711_" class="st0" cx="200" cy="200" rx="200" ry="200"/>
	<path id="XMLID_272_" class="st1" d="M176,209.9c2.3-9.1,10.6-15.4,19.8-15.2c8.8,0.2,16.6,6.4,18.8,15.2
		c-0.7,34.9-1.3,69.8-2,104.7c-0.9,6.2-6.2,10.9-12.4,10.9c-6.3,0-11.7-4.7-12.6-10.9C183.8,279.7,179.9,244.8,176,209.9z"/>
	<g id="XMLID_1602_">
		<path id="XMLID_83_" class="st2" d="M212.2,76.8l2.9-32.7c-4.6-0.4-9.4-0.6-14.1-0.6c-4.5,0-8.9,0.2-13.3,0.6l2.9,32.8
			c3.5-0.3,7.1-0.5,10.7-0.5C204.9,76.3,208.6,76.5,212.2,76.8z"/>
	</g>
	<g id="XMLID_1599_">
		<path id="XMLID_337_" class="st3" d="M243.7,83.8L254.9,53c-12.6-4.6-25.9-7.7-39.8-8.9l-2.9,32.7
			C223.2,77.8,233.7,80.2,243.7,83.8z"/>
	</g>
	<g id="XMLID_1588_">
		<path id="XMLID_633_" class="st4" d="M308.1,137.9l28.3-16.4c-18.2-31.4-47-55.9-81.4-68.6h0l-11.3,30.8
			C271,93.8,293.7,113.1,308.1,137.9z"/>
	</g>
	<g id="XMLID_1585_">
		<path id="XMLID_540_" class="st5" d="M357.3,199.8c0-28.5-7.6-55.2-20.9-78.2l-28.3,16.4c10.6,18.2,16.6,39.3,16.6,61.9
			c0,22.4-6,43.4-16.4,61.5l28.3,16.2C349.8,254.6,357.3,228.1,357.3,199.8z"/>
	</g>
</g>
</svg>
