<?xml version="1.0" encoding="utf-8"?>
<!-- Generator: Adobe Illustrator 19.0.0, SVG Export Plug-In . SVG Version: 6.00 Build 0)  -->
<svg version="1.1" id="Layer_69" xmlns="http://www.w3.org/2000/svg" xmlns:xlink="http://www.w3.org/1999/xlink" x="0px" y="0px"
	 viewBox="0 0 400 400" style="enable-background:new 0 0 400 400;" xml:space="preserve">
<style type="text/css">
	.st0{fill:#F8F9FC;}
	.st1{fill:#B9C5D6;stroke:#2F0D00;stroke-width:1.2828;stroke-miterlimit:10;}
	.st2{fill:#EB6E7A;}
	.st3{fill:#FDC135;}
	.st4{fill:#99CF43;}
</style>
<g id="XMLID_116_">
	<ellipse id="XMLID_1085_" class="st0" cx="200" cy="200" rx="200" ry="200"/>
	<path id="XMLID_298_" class="st1" d="M237.2,38.5c-3.3-12.8-15-21.7-28-21.4c-12.5,0.3-23.4,9.1-26.5,21.4
		c0.9,49.2,1.9,98.5,2.8,147.7c1.2,8.8,8.7,15.3,17.5,15.4c8.9,0.1,16.5-6.6,17.7-15.4C226.2,136.9,231.7,87.7,237.2,38.5z"/>
	<g id="XMLID_2579_">
		<path id="XMLID_512_" class="st2" d="M323.7,200.6c0-45.4-24.7-85.1-61.3-106.3l16.4-28.4c46.5,26.9,77.8,77.1,77.8,134.7
			c0,28.4-7.6,55-20.9,77.9L307.2,262C317.7,243.9,323.7,222.9,323.7,200.6z"/>
	</g>
	<g id="XMLID_2576_">
		<path id="XMLID_302_" class="st3" d="M307.2,262l28.4,16.4c-13.7,23.6-33.4,43.2-57,56.8l-16.3-28.3
			C280.9,296.1,296.4,280.6,307.2,262z"/>
	</g>
	<g id="XMLID_2573_">
		<path id="XMLID_35_" class="st4" d="M262.3,306.9l16.3,28.3c-22.8,13.2-49.3,20.7-77.5,20.7c-0.1,0-0.1,0-0.2,0l0-32.6
			C223.3,323.4,244.3,317.3,262.3,306.9z"/>
	</g>
</g>
</svg>
