<?xml version="1.0" encoding="utf-8"?>
<!-- Generator: Adobe Illustrator 19.0.0, SVG Export Plug-In . SVG Version: 6.00 Build 0)  -->
<svg version="1.1" id="Layer_43" xmlns="http://www.w3.org/2000/svg" xmlns:xlink="http://www.w3.org/1999/xlink" x="0px" y="0px"
	 viewBox="0 0 400 400" style="enable-background:new 0 0 400 400;" xml:space="preserve">
<style type="text/css">
	.st0{fill:#F8F9FC;}
	.st1{fill:#99CF43;}
	.st2{fill:#FDC135;}
	.st3{fill:#EB6E7A;}
	.st4{fill:#B9C5D6;stroke:#2F0D00;stroke-width:1.2828;stroke-miterlimit:10;}
	.st5{fill:#7B92A9;stroke:#2F0D00;stroke-width:1.2828;stroke-miterlimit:10;}
</style>
<ellipse id="XMLID_499_" class="st0" cx="200" cy="200" rx="200" ry="200"/>
<g id="XMLID_158_">
	<g id="XMLID_184_">
		<path id="XMLID_259_" class="st1" d="M323.7,202.8c0,11.1-1.5,21.9-4.2,32.2l31.8,8.6c3.5-13.1,5.4-26.9,5.4-41.1
			c0-28.7-7.7-55.6-21.2-78.8l-28.6,16.6C317.5,158.7,323.7,180.1,323.7,202.8z"/>
	</g>
	<g id="XMLID_187_">
		<path id="XMLID_255_" class="st2" d="M307.2,264.6l28.4,16.5c6.7-11.6,12-24.2,15.6-37.4l-31.8-8.6
			C316.6,245.5,312.5,255.4,307.2,264.6z"/>
	</g>
	<g id="XMLID_195_">
		<path id="XMLID_248_" class="st3" d="M335.6,281.1l-28.4-16.4c-14.6,25.3-37.9,45-65.8,54.9l10.7,30.9
			C287.5,337.9,317,313.1,335.6,281.1z"/>
	</g>
	<g id="XMLID_821_">
		<path id="XMLID_249_" class="st2" d="M306.8,140.4l28.6-16.6c-13.9-23.8-33.8-43.7-57.8-57.4l-16.4,28.9
			C280.1,106.1,295.8,121.7,306.8,140.4z"/>
	</g>
	<g id="XMLID_854_">
		<path id="XMLID_256_" class="st3" d="M199.8,78.9c22.4,0,43.4,5.9,61.5,16.3l16.4-28.9c-22.9-13.1-49.5-20.6-77.8-20.6
			c-9.2,0-18.2,0.8-27,2.3l5.9,32.6C185.6,79.6,192.6,78.9,199.8,78.9z"/>
	</g>
</g>
<path id="XMLID_309_" class="st4" d="M170.3,298c0-14.4-1-26-1.9-33.5c-3.1-26.1-8.3-38.1-9.7-63.7c-0.5-9.8-0.3-17.8,0-22.5
	c2.1-7.8,5.7-12.2,9-14.8c4.8-3.8,7.1-3.1,9.7-6.4c5.9-7.7-2.9-18,1.9-23.8c4.4-5.3,18.1-4.6,23.2,1.9c5,6.5-2.7,13.5,1.3,25.7
	c2.3,7.2,5.8,9.2,15.4,19.3c4.9,5.2,11.4,13,17.4,24.4c10.1,28,2.9,84.8-1.9,145.7c-2,25.2-24.7,41.6-44.4,37.7
	c-15.5-3.1-28.3-18.6-29-37.7c0.3-6.4,0.9-13.4,1.9-20.9C164.9,317.7,167.5,307.1,170.3,298z"/>
<path id="XMLID_294_" class="st4" d="M166.4,101.8c-2.2-19.3,13.1-35.6,30.2-35.4c16.2,0.2,30.6,15.1,29.6,33.5
	c0.2,1.2,4.4,24.2-11.6,38c-7.4,6.4-15.9,7.9-19.9,8.4c-3-0.5-13.9-2.8-21.9-12.9C162.1,119.8,165.9,103.7,166.4,101.8z"/>
<path id="XMLID_285_" class="st5" d="M169.3,186c0.5-9.7,8.6-21.2,18.9-21.3c10.9-0.1,17.4,12.7,19.5,19.6
	c3.1,10.8,0.6,25.8-7.4,29.1C189.7,217.9,168.3,202.8,169.3,186z"/>
</svg>
