<?xml version="1.0" encoding="utf-8"?>
<!-- Generator: Adobe Illustrator 19.0.0, SVG Export Plug-In . SVG Version: 6.00 Build 0)  -->
<svg version="1.1" xmlns="http://www.w3.org/2000/svg" xmlns:xlink="http://www.w3.org/1999/xlink" x="0px" y="0px"
	 viewBox="0 0 399.9 400" style="enable-background:new 0 0 399.9 400;" xml:space="preserve">
<style type="text/css">
	.st0{fill:#F9FAFD;}
	.st1{fill:#9575F9;stroke:#2F0D00;stroke-width:1.2828;stroke-miterlimit:10;}
</style>
<g id="Layer_47">
</g>
<g id="Layer_32">
	<g id="XMLID_162_">
		<path id="XMLID_164_" class="st0" d="M200,1c26.9,0,52.9,5.3,77.4,15.6c23.7,10,45,24.4,63.2,42.6c18.3,18.3,32.6,39.6,42.6,63.3
			c10.4,24.5,15.6,50.6,15.6,77.5s-5.3,52.9-15.6,77.5c-10,23.7-24.4,45-42.6,63.3c-18.3,18.3-39.6,32.6-63.2,42.6
			C252.9,393.7,226.8,399,200,399s-52.9-5.3-77.4-15.6c-23.7-10-45-24.4-63.2-42.6c-18.3-18.3-32.6-39.6-42.6-63.3
			C6.3,252.9,1,226.9,1,200s5.3-52.9,15.6-77.5c10-23.7,24.4-45,42.6-63.3C77.6,41,98.8,26.7,122.5,16.6C147.1,6.3,173.1,1,200,1
			 M200,0C89.5,0,0,89.5,0,200s89.5,200,200,200s200-89.5,200-200S310.4,0,200,0L200,0z"/>
	</g>
	<path id="XMLID_161_" class="st1" d="M201.3,181.8c6.5-1,13.1-1.9,19.6-2.9c22.7-15.5,40.9-16.5,50.7-15.9
		c9.3,0.6,16.6,3.1,45.6,16.1c18.8,8.5,34.8,16,47,21.9c-0.6,1.3-1.4,3.4-2.3,5.9c-0.9,2.6-1,3-1.3,3.4c-2,2.7-8.8,0.2-15.8-1.5
		c-16.5-4-24.9-1.2-30.5-8.1c-1-1.3-0.8-1.5-1.9-2.6c-4.8-5-12.1-4-19.6-4.3c-4.8-0.2-11.4-1.1-19.2-3.8c-0.5,0.6-0.9,1.2-1.4,1.8
		l-21.5-0.8l55.4,3.7c5.1,1.4,8.9,5.1,9.1,8.8c0.3,5-5.9,11.2-14.9,10.4c-18.8,0.3-37.5,0.6-56.3,0.9c-10.8,2.6-20.7,5-30.1,7.1
		c-2,0.4-4.8,1.1-8,0c-8.3-2.7-10.9-13.8-11.3-15.4C191.7,193.9,199.9,183.5,201.3,181.8z"/>
</g>
</svg>
