<?xml version="1.0" encoding="utf-8"?>
<!-- Generator: Adobe Illustrator 19.0.0, SVG Export Plug-In . SVG Version: 6.00 Build 0)  -->
<svg version="1.1" id="Layer_29" xmlns="http://www.w3.org/2000/svg" xmlns:xlink="http://www.w3.org/1999/xlink" x="0px" y="0px"
	 viewBox="0 0 400 400" style="enable-background:new 0 0 400 400;" xml:space="preserve">
<style type="text/css">
	.st0{fill:#F8F9FC;}
	.st1{fill:#99CF43;}
	.st2{fill:#FDC135;}
	.st3{fill:#EB6E7A;}
	.st4{fill:#B9C5D6;stroke:#2F0D00;stroke-width:1.2828;stroke-miterlimit:10;}
</style>
<g id="XMLID_63_">
	<ellipse id="XMLID_698_" class="st0" cx="200" cy="200" rx="200" ry="200"/>
	<path id="XMLID_361_" class="st1" d="M323.9,198.8c0,18.7-4.2,36.4-11.6,52.4l29.6,13.8c9.4-20.1,14.6-42.5,14.6-66.2
		c0-28.6-7.6-55.4-21-78.4l-28.3,16.4C317.8,154.9,323.9,176.2,323.9,198.8z"/>
	<path id="XMLID_364_" class="st2" d="M279.1,294.2l20.9,25.1c17.7-14.7,32.1-33.3,41.9-54.4l-29.6-13.8
		C304.5,267.9,293.1,282.5,279.1,294.2z"/>
	<path id="XMLID_367_" class="st3" d="M279.1,294.2c-11.1,9.2-23.9,16.5-37.7,21.4l10.8,30.9c17.6-6.2,33.7-15.5,47.8-27.2
		L279.1,294.2z"/>
	<path id="XMLID_371_" class="st2" d="M307.2,136.7l28.3-16.4c-6.9-11.9-15.4-22.9-25.1-32.6L287.4,111
		C295,118.6,301.7,127.2,307.2,136.7z"/>
	<path id="XMLID_374_" class="st3" d="M287.4,111l23.1-23.2c-16.1-16-35.6-28.6-57.4-36.5l-11,31C259.2,88.4,274.7,98.3,287.4,111z"
		/>
</g>
<path id="XMLID_233_" class="st4" d="M49.4,169.5c-15,1.4-26.7,12.7-28.2,26.1c-1.9,15.9,10.9,31.9,29.1,33.5
	c54.9-3.4,109.8-6.7,164.8-10.1c8-1.5,13.3-9,12.4-16.6c-0.9-7-6.8-12.6-14.2-13.1C158.6,182.7,104,176.1,49.4,169.5z"/>
</svg>
