<?xml version="1.0" encoding="utf-8"?>
<!-- Generator: Adobe Illustrator 19.0.0, SVG Export Plug-In . SVG Version: 6.00 Build 0)  -->
<svg version="1.1" xmlns="http://www.w3.org/2000/svg" xmlns:xlink="http://www.w3.org/1999/xlink" x="0px" y="0px"
	 viewBox="0 0 400 400" style="enable-background:new 0 0 400 400;" xml:space="preserve">
<style type="text/css">
	.st0{fill:#F9FAFD;}
	.st1{fill:#2FA9F4;stroke:#2F0D00;stroke-width:1.2828;stroke-miterlimit:10;}
</style>
<g id="Layer_47">
</g>
<g id="LUpperarmFlx2">
	<g id="XMLID_105_">
		<g id="XMLID_801_">
			<path id="XMLID_1342_" class="st0" d="M200,1c26.9,0,52.9,5.3,77.4,15.6c23.7,10,45,24.4,63.2,42.6
				c18.3,18.3,32.6,39.6,42.6,63.3c10.4,24.5,15.6,50.6,15.6,77.5s-5.3,52.9-15.6,77.5c-10,23.7-24.4,45-42.6,63.3
				c-18.3,18.3-39.6,32.6-63.2,42.6C252.9,393.7,226.9,399,200,399s-52.9-5.3-77.4-15.6c-23.7-10-45-24.4-63.2-42.6
				c-18.3-18.3-32.6-39.6-42.6-63.3C6.3,252.9,1.1,226.9,1.1,200s5.3-52.9,15.6-77.5c10-23.7,24.4-45,42.6-63.3
				C77.6,41,98.9,26.7,122.6,16.6C147.1,6.3,173.2,1,200,1 M200,0C89.6,0,0.1,89.5,0.1,200s89.5,200,200,200s200-89.5,200-200
				S310.5,0,200,0L200,0z"/>
		</g>
		<path id="XMLID_1219_" class="st1" d="M213.5,199.9c0.8-10.9-7.9-20.2-18.4-20.4c-10.1-0.1-18.8,8.3-18.9,18.8
			c0.7,27.2,1.5,54.4,2.2,81.6c-0.3,6.6,3.2,12.4,8.3,14.2c6.7,2.4,15.8-2.2,18-11.4C207.6,255.2,210.6,227.6,213.5,199.9z"/>
		<path id="XMLID_1215_" class="st1" d="M177.7,282.7c0.7-7,5.9-12.4,12.2-13.2c7.4-0.9,14.9,5.1,15.6,13.6
			c-1.6,25.6-3.1,51.2-4.7,76.8c-0.7,3.7-4.2,6.2-7.7,5.8c-3.3-0.4-5.9-3.2-6.1-6.6C183.9,333.6,180.8,308.2,177.7,282.7z"/>
		<path id="XMLID_1210_" class="st1" d="M191.6,399.6c-2.4-3-6.2-8.8-8-16.9c-2.2-9.7-0.4-17.7,0.7-21.5c1-0.6,4-2.1,7.5-1.2
			c4.4,1,7.9,5.3,8.4,10.7c0.5,1.8,0,3.8-1.4,5c-1.4,1.2-3.4,1.6-5.2,0.8c-0.5,4.1-1,8.5-1.4,13
			C191.9,392.9,191.7,396.3,191.6,399.6z"/>
	</g>
</g>
</svg>
