<?xml version="1.0" encoding="utf-8"?>
<!-- Generator: Adobe Illustrator 19.0.0, SVG Export Plug-In . SVG Version: 6.00 Build 0)  -->
<svg version="1.1" id="Layer_75" xmlns="http://www.w3.org/2000/svg" xmlns:xlink="http://www.w3.org/1999/xlink" x="0px" y="0px"
	 viewBox="0 0 400 400" style="enable-background:new 0 0 400 400;" xml:space="preserve">
<style type="text/css">
	.st0{fill:#F8F9FC;}
	.st1{fill:#B9C5D6;stroke:#2F0D00;stroke-width:1.2828;stroke-miterlimit:10;}
	.st2{fill:#FDC135;}
	.st3{fill:#99CF43;}
</style>
<g id="XMLID_108_">
	<ellipse id="XMLID_817_" class="st0" cx="200" cy="200" rx="200" ry="200"/>
	<path id="XMLID_181_" class="st1" d="M221,216.8c0-12.7,0.9-22.9,1.7-29.5c2.7-22.9,7.3-33.5,8.5-56.1c0.4-8.6,0.2-15.6,0-19.8
		c-1.9-6.9-5-10.7-7.9-13c-4.2-3.3-6.3-2.8-8.5-5.7c-5.2-6.7,2.5-15.8-1.7-21c-3.8-4.7-16-4-20.4,1.7c-4.4,5.7,2.3,11.9-1.1,22.7
		c-2.1,6.3-5.1,8.1-13.6,17c-4.3,4.6-10,11.5-15.3,21.5c-8.9,24.7-2.6,74.6,1.7,128.3c1.8,22.2,21.8,36.6,39.1,33.1
		c13.7-2.7,24.9-16.4,25.5-33.1c-0.2-5.7-0.8-11.8-1.7-18.4C225.8,234.1,223.5,224.8,221,216.8z"/>
	<path id="XMLID_177_" class="st1" d="M224.4,44c2-17-11.6-31.4-26.6-31.2c-14.2,0.2-26.9,13.3-26.1,29.5c-0.2,1-3.9,21.3,10.2,33.4
		c6.6,5.7,14,7,17.6,7.4c2.6-0.5,12.2-2.5,19.3-11.3C228.2,59.9,224.9,45.7,224.4,44z"/>
	<path id="XMLID_172_" class="st1" d="M222,119.9c0.8-10.9-7.9-20.2-18.4-20.4c-10.1-0.1-18.8,8.3-18.9,18.8
		c0.7,27.2,1.5,54.4,2.2,81.6c-0.3,6.6,3.2,12.4,8.3,14.2c6.7,2.4,15.8-2.2,18-11.4C216.2,175.1,219.1,147.5,222,119.9z"/>
	<g id="XMLID_2189_">
		<path id="XMLID_328_" class="st2" d="M141.3,311.6c3.3,1.8,6.7,3.5,10.2,5c15.1,6.5,31.8,10.2,49.3,10.2v33
			c-16.7,0-32.8-2.6-47.9-7.5c-4.9-1.6-9.6-3.3-14.2-5.3c-31.3-13.5-57.4-36.9-74.2-66.3l28.7-16.4
			C104.3,284.1,121.1,300.6,141.3,311.6z"/>
	</g>
	<g id="XMLID_2186_">
		<path id="XMLID_76_" class="st3" d="M76.4,202.4c0,22.5,6,43.6,16.5,61.8l-28.7,16.4c-13.2-23-20.8-49.8-20.8-78.2
			c0-9.4,0.8-18.6,2.4-27.5l32.5,5.8C77.1,187.8,76.4,195,76.4,202.4z"/>
	</g>
	<g id="XMLID_2183_">
		<path id="XMLID_326_" class="st2" d="M158.2,85.6c-5.2,1.9-10.2,4.1-15,6.6c-33.5,17.5-58,49.9-64.8,88.5L45.8,175
			c9.8-55.8,49-101.4,101.1-120.3l2.1,5.8L158.2,85.6z"/>
	</g>
</g>
</svg>
