<?xml version="1.0" encoding="utf-8"?>
<!-- Generator: Adobe Illustrator 19.0.0, SVG Export Plug-In . SVG Version: 6.00 Build 0)  -->
<svg version="1.1" xmlns="http://www.w3.org/2000/svg" xmlns:xlink="http://www.w3.org/1999/xlink" x="0px" y="0px"
	 viewBox="0 0 400 400" style="enable-background:new 0 0 400 400;" xml:space="preserve">
<style type="text/css">
	.st0{fill:#F9FAFD;}
	.st1{fill:#2FA9F4;stroke:#2F0D00;stroke-width:1.2828;stroke-miterlimit:10;}
</style>
<g id="Layer_47">
</g>
<g id="Neck2">
</g>
<g id="TrunkLat3">
	<g id="XMLID_96_">
		<g id="XMLID_1014_">
			<path id="XMLID_1311_" class="st0" d="M200,1c26.9,0,52.9,5.3,77.4,15.6c23.7,10,45,24.4,63.2,42.6
				c18.3,18.3,32.6,39.6,42.6,63.3c10.4,24.5,15.6,50.6,15.6,77.5s-5.3,52.9-15.6,77.5c-10,23.7-24.4,45-42.6,63.3
				c-18.3,18.3-39.6,32.6-63.2,42.6C252.9,393.7,226.9,399,200,399s-52.9-5.3-77.4-15.6c-23.7-10-45-24.4-63.2-42.6
				c-18.3-18.3-32.6-39.6-42.6-63.3C6.3,252.9,1.1,226.9,1.1,200s5.3-52.9,15.6-77.5c10-23.7,24.4-45,42.6-63.3
				C77.6,41,98.9,26.7,122.6,16.6C147.1,6.3,173.2,1,200,1 M200,0C89.6,0,0.1,89.5,0.1,200s89.5,200,200,200s200-89.5,200-200
				S310.5,0,200,0L200,0z"/>
		</g>
		<path id="XMLID_494_" class="st1" d="M266.6,260c1,1.4,5,7.6,3.8,16c-0.9,6.6-4.7,10.9-6.1,12.4c-0.5-0.2-2-1-2.8-2.8
			c-1.2-2.6,0-5.2,0.2-5.5c0.1-0.8,0.2-2.7-0.8-4.7c-0.7-1.4-1.6-2.3-2.2-2.8c-0.7,2.6-1.4,5.2-2.1,7.8c-0.3,1-0.5,1.9-0.8,2.9
			c-0.8-2.3-1.6-5.4-1.6-9.3c-0.1-6.4,1.9-11.3,3.2-14C260.5,260,263.6,260,266.6,260z"/>
		<path id="XMLID_492_" class="st1" d="M137.1,260c-1,1.4-5,7.6-3.8,16c0.9,6.6,4.7,10.9,6.1,12.4c0.5-0.2,2-1,2.8-2.8
			c1.2-2.6,0-5.2-0.2-5.5c-0.1-0.8-0.2-2.7,0.8-4.7c0.7-1.4,1.6-2.3,2.2-2.8c0.7,2.6,1.4,5.2,2.1,7.8c0.3,1,0.5,1.9,0.8,2.9
			c0.8-2.3,1.6-5.4,1.6-9.3c0.1-6.4-1.9-11.3-3.2-14C143.2,260,140.1,260,137.1,260z"/>
		<path id="XMLID_479_" class="st1" d="M239.5,106.9c-1-10,4.3-19.1,11.2-19.9c6.7-0.7,12.8,6.5,13.3,16.2
			c0.7,25.1,1.4,50.3,2.1,75.4c0.5,6-1.6,11.6-4.8,13.6c-4.3,2.6-10.5-1.1-12.3-9.4C245.7,157.5,242.6,132.2,239.5,106.9z"/>
		<path id="XMLID_475_" class="st1" d="M164.4,106.5c1-10-4.3-19.1-11.2-19.9c-6.7-0.7-12.8,6.5-13.3,16.2
			c-0.7,25.1-1.4,50.3-2.1,75.4c-0.5,6,1.6,11.6,4.8,13.6c4.3,2.6,10.5-1.1,12.3-9.4C158.1,157.1,161.2,131.8,164.4,106.5z"/>
		<path id="XMLID_470_" class="st1" d="M268.4,186.7c-1-6.4-5.1-11.3-9.6-11.7c-5.4-0.6-10.3,5.1-10.3,13c2.9,23.5,5.8,47,8.7,70.6
			c0.8,3.4,3.4,5.6,5.9,5.1c2.3-0.5,4-3.1,3.9-6.3C267.5,233.8,267.9,210.3,268.4,186.7z"/>
		<path id="XMLID_466_" class="st1" d="M135.5,186.4c1-6.4,5.1-11.3,9.6-11.7c5.4-0.6,10.3,5.1,10.3,13c-2.9,23.5-5.8,47-8.7,70.6
			c-0.8,3.4-3.4,5.6-5.9,5.1c-2.3-0.5-4-3.1-3.9-6.3C136.3,233.4,135.9,209.9,135.5,186.4z"/>
		<path id="XMLID_461_" class="st1" d="M244.7,135c2.1-4.9,6.8-14.3,6.1-26.9c-0.4-8.2-2.9-14.7-4.9-18.8c-2.9-1.6-7.5-3.9-13.3-6.2
			c-9.3-3.7-13.8-4.1-17.8-8.2c-3.8-4-5.2-8.7-5.8-11.8c-5.1,0-10.1,0-15.2,0c-0.4,3.6-1.7,8.8-5.8,12.8c-3.8,3.7-7.9,3.7-15.2,6.7
			c-3.7,1.5-9.2,4.1-15.4,8.7c-1.5,3.7-3.2,9.5-3.2,16.5c0,11.4,4.7,19.7,6.4,22.9c8.5,16.6,6.5,40.3,2.1,86.9h78.8
			C237.3,179.8,235.3,156.8,244.7,135z"/>
		<path id="XMLID_457_" class="st1" d="M177.8,34.7C176,19,188.5,5.8,202.4,5.9c13.2,0.2,24.9,12.3,24.1,27.2
			c0.2,1,3.6,19.7-9.4,30.9c-6.1,5.2-12.9,6.5-16.2,6.8c-2.4-0.4-11.3-2.3-17.8-10.5C174.3,49.4,177.4,36.3,177.8,34.7z"/>
	</g>
</g>
</svg>
