<?xml version="1.0" encoding="utf-8"?>
<!-- Generator: Adobe Illustrator 19.0.0, SVG Export Plug-In . SVG Version: 6.00 Build 0)  -->
<svg version="1.1" id="Layer_35" xmlns="http://www.w3.org/2000/svg" xmlns:xlink="http://www.w3.org/1999/xlink" x="0px" y="0px"
	 viewBox="0 0 400 400" style="enable-background:new 0 0 400 400;" xml:space="preserve">
<style type="text/css">
	.st0{fill:#F8F9FC;}
	.st1{fill:#99CF43;}
	.st2{fill:#FDC135;}
	.st3{fill:#EB6E7A;}
	.st4{fill:#B9C5D6;stroke:#2F0D00;stroke-width:1.2828;stroke-miterlimit:10;}
</style>
<path id="XMLID_189_" class="st0" d="M400,200C400,89.5,310.5,0,200,0S0.1,89.5,0.1,200c0,93.9,64.7,172.6,151.9,194.2
	c3.8-61.6,7.5-123.3,11.3-184.9c2.9-14.8,16.7-24.8,30.9-23.1c13.1,1.6,23.6,12.7,24.5,26.5c7.4,61.1,14.8,122.1,22.2,183.2
	C331.7,377,400,296.5,400,200z"/>
<g id="XMLID_236_">
	<g id="XMLID_258_">
		<path id="XMLID_253_" class="st1" d="M200.6,74.6c6.9,0,13.6,0.6,20.1,1.6l5.4-32.5c-8.4-1.4-17-2.1-25.8-2.1
			c-9.8,0-19.4,0.9-28.7,2.6l5.9,32.5C185.1,75.4,192.8,74.6,200.6,74.6z"/>
	</g>
	<g id="XMLID_261_">
		<path id="XMLID_277_" class="st2" d="M171.7,44.3c-14,2.6-27.3,7-39.6,13l14.2,29.9c9.8-4.8,20.3-8.3,31.3-10.4L171.7,44.3z"/>
	</g>
	<g id="XMLID_264_">
		<path id="XMLID_274_" class="st2" d="M231.7,78.6l8.4-31.8c-4.6-1.2-9.2-2.2-13.9-3l-5.4,32.5C224.5,76.9,228.1,77.6,231.7,78.6z"
			/>
	</g>
	<g id="XMLID_270_">
		<path id="XMLID_287_" class="st3" d="M231.7,78.6c17.4,4.5,33.3,12.7,46.9,23.7l20.8-25.4c-17.1-14-37.3-24.4-59.3-30.2
			L231.7,78.6z"/>
	</g>
	<g id="XMLID_275_">
		<path id="XMLID_276_" class="st3" d="M146.3,87.2L132,57.3c-20.6,10-38.7,24.4-53.1,41.9l25.5,21.2
			C115.7,106.5,130,95.1,146.3,87.2z"/>
	</g>
</g>
<g id="XMLID_188_">
	<path id="XMLID_229_" class="st4" d="M194.1,186.2c-14.2-1.7-28,8.3-30.9,23.1c-3.8,61.6-7.5,123.3-11.3,184.9
		c15.4,3.8,31.5,5.8,48.1,5.8c14,0,27.6-1.4,40.8-4.2c-7.4-61.1-14.8-122.1-22.2-183.2C217.7,198.9,207.2,187.8,194.1,186.2z"/>
</g>
</svg>
