<?xml version="1.0" encoding="utf-8"?>
<!-- Generator: Adobe Illustrator 19.0.0, SVG Export Plug-In . SVG Version: 6.00 Build 0)  -->
<svg version="1.1" xmlns="http://www.w3.org/2000/svg" xmlns:xlink="http://www.w3.org/1999/xlink" x="0px" y="0px"
	 viewBox="0 0 400 400" style="enable-background:new 0 0 400 400;" xml:space="preserve">
<style type="text/css">
	.st0{fill:#F9FAFD;}
	.st1{fill:#9575F9;stroke:#2F0D00;stroke-width:1.2828;stroke-miterlimit:10;}
</style>
<g id="Layer_47">
</g>
<g id="Layer_46">
	<g id="XMLID_1704_">
		<path id="XMLID_1706_" class="st0" d="M200,1c0.6,0,1.2,0,1.8,0c26.9,0.2,52.9,5.7,77.3,16.3c23.6,10.2,44.8,24.8,62.9,43.2
			c18.1,18.4,32.3,39.8,42.1,63.6c10.2,24.6,15.2,50.7,15,77.6c-0.5,52.8-21.4,102.4-58.9,139.6c-18.3,18.1-39.5,32.3-63.1,42.2
			c-24.4,10.3-50.3,15.4-77,15.4c-0.6,0-1.2,0-1.8,0c-26.9-0.2-52.9-5.7-77.3-16.3c-23.6-10.2-44.8-24.8-62.9-43.2
			S25.8,299.6,16,275.9C5.8,251.2,0.8,225.1,1,198.3C1.5,145.4,22.4,95.9,60,58.7C78.2,40.6,99.4,26.4,123,16.5
			C147.4,6.2,173.3,1,200,1 M200,0C90.3,0,1,88.4,0,198.3C-0.9,308.7,87.8,399,198.3,400c0.6,0,1.2,0,1.8,0
			c109.7,0,199-88.4,200-198.2C401,91.3,312.2,1,201.8,0C201.2,0,200.6,0,200,0L200,0z"/>
	</g>
	<path id="XMLID_1700_" class="st1" d="M196.1,180.9c9.1,0.6,16.4,7.2,17.6,15.2c1.5,9.6-5.9,19.5-16.9,20.9
		c-33.3-1-66.6-1.9-99.9-2.9c-4.8-0.8-8.2-5.2-7.8-9.8c0.4-4.3,3.9-7.8,8.3-8.2C130.3,191.1,163.2,186,196.1,180.9z"/>
	<path id="XMLID_1696_" class="st1" d="M41.1,209.4c4.9-4.1,14.3-10.8,27.8-14.3c16.1-4.2,29.6-1.6,35.9,0.1c1,1.6,3.6,6.5,2.5,12.4
		c-1.5,7.4-8.4,13.4-17.4,14.6c-3,1-6.3,0.2-8.4-2.1c-2.2-2.3-2.8-5.6-1.6-8.6c-6.9-0.7-14.2-1.2-21.7-1.6
		C52.2,209.6,46.6,209.5,41.1,209.4z"/>
</g>
</svg>
