<?xml version="1.0" encoding="utf-8"?>
<!-- Generator: Adobe Illustrator 19.0.0, SVG Export Plug-In . SVG Version: 6.00 Build 0)  -->
<svg version="1.1" id="Layer_80" xmlns="http://www.w3.org/2000/svg" xmlns:xlink="http://www.w3.org/1999/xlink" x="0px" y="0px"
	 viewBox="0 0 400 400" style="enable-background:new 0 0 400 400;" xml:space="preserve">
<style type="text/css">
	.st0{fill:#F8F9FC;}
	.st1{fill:#B9C5D6;stroke:#2F0D00;stroke-width:1.2828;stroke-miterlimit:10;}
	.st2{fill:#FD9A47;}
	.st3{fill:#EB6E7A;}
	.st4{fill:#99CF43;}
	.st5{fill:#FDC135;}
</style>
<g id="XMLID_94_">
	<ellipse id="XMLID_753_" class="st0" cx="200" cy="200" rx="200" ry="200"/>
	<path id="XMLID_713_" class="st1" d="M181.4,307.4c0-11-0.8-19.7-1.5-25.4c-2.4-19.8-6.3-29-7.3-48.4c-0.4-7.5-0.2-13.5,0-17.1
		c1.6-5.9,4.3-9.3,6.8-11.2c3.6-2.9,5.4-2.4,7.3-4.9c4.5-5.8-2.2-13.7,1.5-18.1c3.3-4,13.8-3.5,17.6,1.5c3.8,4.9-2,10.3,1,19.6
		c1.8,5.5,4.4,7,11.7,14.7c3.7,3.9,8.6,9.9,13.2,18.6c7.7,21.3,2.2,64.4-1.5,110.7c-1.5,19.2-18.8,31.6-33.7,28.6
		c-11.8-2.3-21.5-14.1-22-28.6c0.2-4.9,0.7-10.2,1.5-15.9C177.3,322.3,179.2,314.3,181.4,307.4z"/>
	<path id="XMLID_705_" class="st1" d="M177.4,224.3c-1.1-9.4,6.1-17.7,15.1-18.2c8.7-0.5,16.5,6.5,17,15.6c0.3,23.5,0.6,47,0.9,70.4
		c0.5,5.7-2.4,10.8-6.7,12.5c-5.7,2.3-13.7-1.4-15.9-9.2C184.4,271.8,180.9,248.1,177.4,224.3z"/>
	<path id="XMLID_701_" class="st1" d="M211.1,294.5c-0.8-6-5.5-10.5-10.9-10.9c-6.4-0.5-12.7,4.9-13,12.2c2.2,22,4.5,44,6.7,66.1
		c0.7,3.2,3.8,5.2,6.9,4.7c2.8-0.5,5-2.9,5.1-5.9C207.6,338.6,209.3,316.6,211.1,294.5z"/>
	<path id="XMLID_697_" class="st1" d="M203.2,395.8c1.9-2.7,5.1-7.8,6.4-14.9c1.6-8.5-0.3-15.3-1.4-18.5c-0.9-0.4-3.5-1.6-6.5-0.8
		c-3.8,1-6.6,4.9-6.9,9.5c-0.4,1.6,0.2,3.3,1.4,4.3c1.3,1,3,1.2,4.5,0.5c0.6,3.6,1.2,7.3,1.6,11.1C202.7,390.1,203,393,203.2,395.8z
		"/>
	<g id="XMLID_2088_">
		<path id="XMLID_630_" class="st2" d="M318.9,157.4l30.4-11.1c-15.7-42.9-49.8-77-92.7-92.6l-11.2,30.6
			C279.4,96.6,306.4,123.5,318.9,157.4z"/>
	</g>
	<g id="XMLID_2085_">
		<path id="XMLID_538_" class="st3" d="M161.8,84.3l-11.1-30.8C116.2,65.9,87.3,90.3,69,121.6l28.4,16.5
			C111.8,113.4,134.6,94.1,161.8,84.3z"/>
	</g>
	<g id="XMLID_2082_">
		<path id="XMLID_81_" class="st4" d="M203.6,77c7.2,0,14.3,0.7,21.2,1.9l5.7-32.1c-8.8-1.6-17.9-2.4-27.2-2.4
			c-18.4,0-36.1,3.2-52.6,9.1l11.1,30.8C174.9,79.5,188.9,77,203.6,77z"/>
	</g>
	<g id="XMLID_2079_">
		<path id="XMLID_335_" class="st5" d="M245.4,84.3l11.2-30.6c-8.4-3.1-17.1-5.4-26-6.9l-5.7,32.1C231.9,80.1,238.8,81.9,245.4,84.3
			z"/>
	</g>
</g>
</svg>
