<?xml version="1.0" encoding="utf-8"?>
<!-- Generator: Adobe Illustrator 19.0.0, SVG Export Plug-In . SVG Version: 6.00 Build 0)  -->
<svg version="1.1" xmlns="http://www.w3.org/2000/svg" xmlns:xlink="http://www.w3.org/1999/xlink" x="0px" y="0px"
	 viewBox="0 0 400 400" style="enable-background:new 0 0 400 400;" xml:space="preserve">
<style type="text/css">
	.st0{fill:#F9FAFD;}
	.st1{fill:#9575F9;stroke:#2F0D00;stroke-width:1.2828;stroke-miterlimit:10;}
	.st2{opacity:0.59;}
	.st3{fill:#9575F9;}
</style>
<g id="Layer_47">
</g>
<g id="Neck2">
	<g id="XMLID_1130_">
		<g id="XMLID_1143_">
			<path id="XMLID_1145_" class="st0" d="M200,1c26.9,0,52.9,5.3,77.4,15.6c23.7,10,45,24.4,63.2,42.6
				c18.3,18.3,32.6,39.6,42.6,63.3c10.4,24.5,15.6,50.6,15.6,77.5s-5.3,52.9-15.6,77.5c-10,23.7-24.4,45-42.6,63.3
				c-18.3,18.3-39.6,32.6-63.2,42.6C252.9,393.7,226.9,399,200,399s-52.9-5.3-77.4-15.6c-23.7-10-45-24.4-63.2-42.6
				c-18.3-18.3-32.6-39.6-42.6-63.3C6.3,252.9,1.1,226.9,1.1,200s5.3-52.9,15.6-77.5c10-23.7,24.4-45,42.6-63.3
				C77.6,41,98.9,26.7,122.6,16.6C147.1,6.3,173.2,1,200,1 M200,0C89.6,0,0.1,89.5,0.1,200s89.5,200,200,200s200-89.5,200-200
				S310.5,0,200,0L200,0z"/>
		</g>
		<path id="XMLID_1137_" class="st1" d="M178.4,158.3c-1.7-14.7,10-27.1,23-26.9c12.3,0.2,23.3,11.5,22.5,25.4
			c0.2,0.9,3.3,18.4-8.8,28.8c-5.7,4.9-12.1,6-15.2,6.4c-2.2-0.4-10.6-2.2-16.6-9.8C175.2,172,178,159.8,178.4,158.3z"/>
		<g id="XMLID_1131_" class="st2">
			<polygon id="XMLID_1136_" class="st3" points="199.1,84.8 193.7,94.5 198.2,94.5 198.2,118.8 204.6,118.8 204.6,94.5 209.1,94.5 
				205.3,87.7 201.4,80.7 			"/>
			<rect id="XMLID_1135_" x="198.2" y="129.1" class="st3" width="6.4" height="3.6"/>
			<rect id="XMLID_1134_" x="198.2" y="136" class="st3" width="6.4" height="3.6"/>
			<rect id="XMLID_1133_" x="198.2" y="142.9" class="st3" width="6.4" height="3.9"/>
			<rect id="XMLID_1132_" x="198.2" y="122.2" class="st3" width="6.4" height="3.6"/>
		</g>
	</g>
</g>
<g id="TrunkLat3">
</g>
<g id="Layer_38">
</g>
</svg>
