<?xml version="1.0" encoding="utf-8"?>
<!-- Generator: Adobe Illustrator 19.0.0, SVG Export Plug-In . SVG Version: 6.00 Build 0)  -->
<svg version="1.1" id="Layer_74" xmlns="http://www.w3.org/2000/svg" xmlns:xlink="http://www.w3.org/1999/xlink" x="0px" y="0px"
	 viewBox="0 0 400 400" style="enable-background:new 0 0 400 400;" xml:space="preserve">
<style type="text/css">
	.st0{fill:#F8F9FC;}
	.st1{fill:#B9C5D6;stroke:#2F0D00;stroke-width:1.2828;stroke-miterlimit:10;}
	.st2{fill:#EB6E7A;}
	.st3{fill:#FDC135;}
	.st4{fill:#99CF43;}
</style>
<g id="XMLID_89_">
	<ellipse id="XMLID_966_" class="st0" cx="200" cy="200" rx="200" ry="200"/>
	<path id="XMLID_939_" class="st1" d="M257.4,369.2c0.9,1.3,4.5,6.8,3.4,14.2c-0.8,5.9-4.1,9.6-5.4,10.9c-0.4-0.2-1.8-0.9-2.5-2.5
		c-1.1-2.3,0-4.6,0.2-4.8c0.1-0.7,0.1-2.4-0.7-4.1c-0.6-1.3-1.4-2.1-2-2.5c-0.6,2.3-1.2,4.6-1.8,6.9c-0.2,0.9-0.5,1.7-0.7,2.6
		c-0.7-2-1.4-4.8-1.4-8.3c-0.1-5.7,1.7-10.1,2.9-12.4C252,369.2,254.7,369.2,257.4,369.2z"/>
	<path id="XMLID_938_" class="st1" d="M142.6,369.2c-0.9,1.3-4.5,6.8-3.4,14.2c0.8,5.9,4.1,9.6,5.4,10.9c0.4-0.2,1.8-0.9,2.5-2.5
		c1.1-2.3,0-4.6-0.2-4.8c-0.1-0.7-0.1-2.4,0.7-4.1c0.6-1.3,1.4-2.1,2-2.5c0.6,2.3,1.2,4.6,1.8,6.9c0.2,0.9,0.5,1.7,0.7,2.6
		c0.7-2,1.4-4.8,1.4-8.3c0.1-5.7-1.7-10.1-2.9-12.4C148,369.2,145.3,369.2,142.6,369.2z"/>
	<path id="XMLID_934_" class="st1" d="M233.3,233.5c-0.9-8.9,3.8-17,9.9-17.6c5.9-0.7,11.3,5.8,11.8,14.4
		c0.6,22.3,1.3,44.6,1.9,66.8c0.5,5.4-1.4,10.3-4.3,12.1c-3.8,2.3-9.3-1-10.9-8.3C238.9,278.3,236.1,255.9,233.3,233.5z"/>
	<path id="XMLID_930_" class="st1" d="M166.8,233.2c0.9-8.9-3.8-17-9.9-17.6c-5.9-0.7-11.3,5.8-11.8,14.4
		c-0.6,22.3-1.3,44.6-1.9,66.8c-0.5,5.4,1.4,10.3,4.3,12.1c3.8,2.3,9.3-1,10.9-8.3C161.2,278,164,255.6,166.8,233.2z"/>
	<path id="XMLID_925_" class="st1" d="M259,304.2c-0.9-5.7-4.5-10-8.5-10.4c-4.8-0.5-9.2,4.5-9.1,11.5c2.6,20.9,5.1,41.7,7.7,62.6
		c0.7,3,3,4.9,5.3,4.5c2.1-0.4,3.6-2.8,3.5-5.6C258.2,345.9,258.6,325.1,259,304.2z"/>
	<path id="XMLID_920_" class="st1" d="M141.2,303.9c0.9-5.7,4.5-10,8.5-10.4c4.8-0.5,9.2,4.5,9.1,11.5c-2.6,20.9-5.1,41.7-7.7,62.6
		c-0.7,3-3,4.9-5.3,4.5c-2.1-0.4-3.6-2.8-3.5-5.6C141.9,345.6,141.6,324.8,141.2,303.9z"/>
	<path id="XMLID_225_" class="st1" d="M165,338.3c-0.6,6.6-1.6,15.8-3.3,27c2.4,2.5,16.7,17,39.6,16.8c22.4-0.2,36.2-14.2,38.6-16.8
		c-1.1-5.3-2.5-13.6-3.7-23.7c-0.3-2.4-0.5-4.7-0.8-7h-70.1C165.3,335.8,165.2,337,165,338.3z"/>
	<path id="XMLID_224_" class="st1" d="M238.1,258.3c1.9-4.4,6-12.7,5.4-23.9c-0.4-7.3-2.6-13.1-4.3-16.7c-2.6-1.4-6.7-3.4-11.8-5.5
		c-8.3-3.3-12.3-3.6-15.8-7.3c-3.4-3.5-4.6-7.7-5.1-10.5c-4.5,0-9,0-13.5,0c-0.4,3.2-1.5,7.8-5.1,11.4c-3.4,3.3-7,3.3-13.5,5.9
		c-3.3,1.3-8.2,3.7-13.7,7.8c-1.3,3.3-2.9,8.4-2.9,14.6c0,10.1,4.2,17.5,5.7,20.3c7.6,14.7,5.8,35.8,1.9,77.3h70.1
		C231.5,298.1,229.8,277.7,238.1,258.3z"/>
	<g id="XMLID_2403_">
		<path id="XMLID_526_" class="st2" d="M316.5,158.1l30.7-11.2c-12.6-34.6-37.1-63.4-68.5-81.7l-16.5,28.4
			C287.1,108,306.5,130.8,316.5,158.1z"/>
	</g>
	<g id="XMLID_2400_">
		<path id="XMLID_320_" class="st3" d="M178.9,78.8l-5.6-32.5c-18.6,3.2-36,9.6-51.7,18.8l16.5,28.6
			C150.5,86.5,164.2,81.3,178.9,78.8z"/>
	</g>
	<g id="XMLID_2397_">
		<path id="XMLID_524_" class="st2" d="M138.1,93.7L121.5,65c-31.5,18.2-56,47.1-68.7,81.7l31.1,11.4
			C93.9,130.9,113.3,108.1,138.1,93.7z"/>
	</g>
	<g id="XMLID_2394_">
		<path id="XMLID_68_" class="st4" d="M200.2,76.9c7.4,0,14.7,0.7,21.8,1.9l5.9-32.4c-9.1-1.6-18.4-2.5-27.9-2.5
			c-9.1,0-18,0.8-26.7,2.3l5.6,32.5C185.8,77.6,193,76.9,200.2,76.9z"/>
	</g>
	<g id="XMLID_2391_">
		<path id="XMLID_316_" class="st3" d="M262.2,93.6l16.5-28.4c-15.5-9-32.6-15.4-50.8-18.7L222,78.9C236.4,81.4,250,86.5,262.2,93.6
			z"/>
	</g>
</g>
</svg>
