<?xml version="1.0" encoding="utf-8"?>
<!-- Generator: Adobe Illustrator 19.0.0, SVG Export Plug-In . SVG Version: 6.00 Build 0)  -->
<svg version="1.1" id="Layer_78" xmlns="http://www.w3.org/2000/svg" xmlns:xlink="http://www.w3.org/1999/xlink" x="0px" y="0px"
	 viewBox="0 0 400 400" style="enable-background:new 0 0 400 400;" xml:space="preserve">
<style type="text/css">
	.st0{fill:#F8F9FC;}
	.st1{fill:#B9C5D6;stroke:#2F0D00;stroke-width:1.2828;stroke-miterlimit:10;}
	.st2{fill:#EB6E7A;}
	.st3{fill:#99CF43;}
</style>
<g id="XMLID_82_">
	<ellipse id="XMLID_927_" class="st0" cx="200" cy="200" rx="200" ry="200"/>
	<path id="XMLID_115_" class="st1" d="M90.7,133.7c-0.2-2.5-0.8-13,7.6-18.4c6.6-4.3,15.1-2.9,18.3-2.2c0.5,0.9,1.9,3.5,1.6,6.1
		c-0.4,3.8-4.2,4.2-4.7,4.3c-0.8,0.6-2.4,2-2.6,4.9c-0.2,2.1,0.4,4.1,0.8,5.3c3-1.3,6.1-2.5,9.1-3.8c1.1-0.5,2.3-0.9,3.4-1.4
		c-0.8,2.9-2.2,6.6-5.3,9.9c-5,5.4-11.8,6.9-15.7,7.3C99,141.8,94.8,137.8,90.7,133.7z"/>
	<path id="XMLID_114_" class="st1" d="M308.4,133.7c0.2-2.5,0.8-13-7.6-18.4c-6.6-4.3-15.1-2.9-18.3-2.2c-0.5,0.9-1.9,3.5-1.6,6.1
		c0.4,3.8,4.2,4.2,4.7,4.3c0.8,0.6,2.4,2,2.6,4.9c0.2,2.1-0.4,4.1-0.8,5.3c-3-1.3-6.1-2.5-9.1-3.8c-1.1-0.5-2.3-0.9-3.4-1.4
		c0.8,2.9,2.2,6.6,5.3,9.9c5,5.4,11.8,6.9,15.7,7.3C300.1,141.8,304.2,137.8,308.4,133.7z"/>
	<path id="XMLID_113_" class="st1" d="M322.3,193.9c-2.8,4-11.2,6.7-20.5,6.6c-9.1-0.1-17.2-2.7-19.9-6.6c2.3-19,4.6-38,6.8-57.1
		c2.2-2.5,7.6-4.1,13.7-4.1c6,0,11.5,1.6,13.7,4.1C318.2,155.9,320.3,174.9,322.3,193.9z"/>
	<path id="XMLID_112_" class="st1" d="M78,193.9c2.8,4,11.2,6.7,20.5,6.6c9.1-0.1,17.2-2.7,19.9-6.6c-2.3-19-4.6-38-6.8-57
		c-2.2-2.5-7.6-4.1-13.7-4.1s-11.5,1.6-13.7,4.1C82.1,155.9,80,174.9,78,193.9z"/>
	<path id="XMLID_111_" class="st1" d="M267,259.6c-45.2,0-90.4,0-135.6,0c-25.7-11.7-44.5-33.8-46-57.8
		c-2.3-35.7,33.4-74.9,85.2-75.9c17.6,0,35.2,0,52.9,0c68.6,2,109.8,47.5,105.7,80.2C326.2,229.6,299.6,250.2,267,259.6z"/>
	<path id="XMLID_110_" class="st1" d="M332.9,209.3c1.7,18-12.6,33.6-29.8,33.6s-31.6-15.5-29.8-33.6c0.7-21.5,8.7-38.9,21.8-43.5
		c2.2-0.8,4.9-1.3,8.1-1.2c2.9-0.3,5.4,0,7.5,0.6C323.3,168.8,331.7,186.6,332.9,209.3z"/>
	<path id="XMLID_80_" class="st1" d="M67.4,209.3c-1.7,18,12.6,33.6,29.8,33.6c17.2,0,31.6-15.5,29.8-33.6
		c-0.7-21.5-8.7-38.9-21.8-43.5c-2.2-0.8-4.9-1.3-8.1-1.2c-2.9-0.3-5.4,0-7.5,0.6C77,168.8,68.6,186.6,67.4,209.3z"/>
	<g id="XMLID_2345_">
		<path id="XMLID_530_" class="st2" d="M113.8,112.3L90.7,89.2c-28.1,28-45.4,66.7-45.4,109.5c0,0,0,0,0,0.1H78
			C78,165,91.7,134.5,113.8,112.3z"/>
	</g>
	<g id="XMLID_2342_">
		<path id="XMLID_57_" class="st3" d="M200.3,76.5c33.8,0,64.4,13.7,86.5,35.8l22.9-22.9C281.6,61.4,242.8,44,200,44
			c-42.7,0-81.3,17.3-109.3,45.2l23.1,23.1C135.9,90.2,166.5,76.5,200.3,76.5z"/>
	</g>
	<g id="XMLID_2339_">
		<path id="XMLID_528_" class="st2" d="M322.5,198.8h32.2c0,0,0,0,0-0.1c0-42.6-17.2-81.2-45.1-109.2l-22.9,22.9
			C308.9,134.5,322.5,165,322.5,198.8z"/>
	</g>
</g>
</svg>
