<?xml version="1.0" encoding="utf-8"?>
<!-- Generator: Adobe Illustrator 19.0.0, SVG Export Plug-In . SVG Version: 6.00 Build 0)  -->
<svg version="1.1" xmlns="http://www.w3.org/2000/svg" xmlns:xlink="http://www.w3.org/1999/xlink" x="0px" y="0px"
	 viewBox="0 0 400 400" style="enable-background:new 0 0 400 400;" xml:space="preserve">
<style type="text/css">
	.st0{fill:#F8F9FC;}
	.st1{fill:#EB6E7A;}
	.st2{fill:#FDC135;}
	.st3{fill:#99CF43;}
</style>
<g id="Layer_47">
</g>
<g id="Layer_73">
	<g id="XMLID_93_">
		<ellipse id="XMLID_998_" class="st0" cx="200" cy="200" rx="200" ry="200"/>
		<g id="XMLID_2455_">
			<path id="XMLID_522_" class="st1" d="M159.3,84l-11.1-30.6c-42.7,15.6-76.7,49.5-92.3,92.2l30.7,11.2
				C98.9,123.2,125.7,96.4,159.3,84z"/>
		</g>
		<g id="XMLID_2452_">
			<path id="XMLID_314_" class="st2" d="M243,83.9l11.1-30.4c-8.2-3-16.8-5.3-25.6-6.9l-5.8,31.9C229.7,79.7,236.5,81.5,243,83.9z"
				/>
		</g>
		<g id="XMLID_2449_">
			<path id="XMLID_520_" class="st1" d="M316.2,157.1l30.3-11c-15.5-42.9-49.4-77-92.3-92.6L243,83.9
				C276.9,96.2,303.9,123.1,316.2,157.1z"/>
		</g>
		<g id="XMLID_2446_">
			<path id="XMLID_65_" class="st3" d="M201.4,76.6c7.3,0,14.5,0.7,21.4,1.9l5.8-31.9c-8.9-1.6-18.1-2.5-27.4-2.5
				c-9,0-17.8,0.8-26.4,2.3l5.6,32C187.1,77.3,194.2,76.6,201.4,76.6z"/>
		</g>
		<g id="XMLID_2443_">
			<path id="XMLID_312_" class="st2" d="M180.2,78.5l-5.6-32c-9.1,1.6-18,3.9-26.5,7L159.3,84C166,81.6,173,79.7,180.2,78.5z"/>
		</g>
	</g>
</g>
</svg>
