<?xml version="1.0" encoding="utf-8"?>
<!-- Generator: Adobe Illustrator 19.0.0, SVG Export Plug-In . SVG Version: 6.00 Build 0)  -->
<svg version="1.1" id="Layer_81" xmlns="http://www.w3.org/2000/svg" xmlns:xlink="http://www.w3.org/1999/xlink" x="0px" y="0px"
	 viewBox="0 0 400 400" style="enable-background:new 0 0 400 400;" xml:space="preserve">
<style type="text/css">
	.st0{fill:#F8F9FC;}
	.st1{fill:#B9C5D6;stroke:#2F0D00;stroke-width:1.2828;stroke-miterlimit:10;}
	.st2{fill:#EB6E7A;}
	.st3{fill:#FDC135;}
	.st4{fill:#99CF43;}
	.st5{fill:#FD9A47;}
</style>
<g id="XMLID_104_">
	<ellipse id="XMLID_785_" class="st0" cx="200" cy="200" rx="200" ry="200"/>
	<path id="XMLID_1593_" class="st1" d="M213.6,291.2c0-12.7,0.9-22.9,1.7-29.5c2.7-22.9,7.3-33.5,8.5-56.1c0.4-8.6,0.2-15.6,0-19.8
		c-1.9-6.9-5-10.7-7.9-13c-4.2-3.3-6.3-2.8-8.5-5.7c-5.2-6.7,2.5-15.8-1.7-21c-3.8-4.7-16-4-20.4,1.7c-4.4,5.7,2.3,11.9-1.1,22.7
		c-2.1,6.3-5.1,8.1-13.6,17c-4.3,4.6-10,11.5-15.3,21.5c-8.9,24.7-2.6,74.6,1.7,128.3c1.8,22.2,21.8,36.6,39.1,33.1
		c13.7-2.7,24.9-16.4,25.5-33.1c-0.2-5.7-0.8-11.8-1.7-18.4C218.3,308.4,216.1,299.1,213.6,291.2z"/>
	<path id="XMLID_1589_" class="st1" d="M217,118.4c2-17-11.6-31.4-26.6-31.2c-14.2,0.2-26.9,13.3-26.1,29.5
		c-0.2,1-3.9,21.3,10.2,33.4c6.6,5.7,14,7,17.6,7.4c2.6-0.5,12.2-2.5,19.3-11.3C220.8,134.3,217.4,120.1,217,118.4z"/>
	<g id="XMLID_2143_">
		<path id="XMLID_536_" class="st2" d="M46.1,197.3c0-86.2,69.8-156,156-156h0.3v32.8c-68.1,0-123.3,55.2-123.3,123.3L46.1,197.3
			L46.1,197.3z"/>
	</g>
	<g id="XMLID_2140_">
		<path id="XMLID_333_" class="st3" d="M91.9,307.8l23.2-23.2c12.5,12.5,27.7,22.4,44.7,28.6l-11.3,30.8
			C127.1,336.1,107.8,323.6,91.9,307.8z"/>
	</g>
	<g id="XMLID_2137_">
		<path id="XMLID_62_" class="st4" d="M202.4,353.3h-0.3c-10.1,0-20-1-29.6-2.8c-2.2-0.4-4.3-0.9-6.5-1.4
			c-5.9-1.4-11.8-3.1-17.4-5.2l11.3-30.8c2.8,1,5.8,2,8.7,2.8c0.8,0.2,1.7,0.5,2.5,0.7c10,2.6,20.5,4,31.3,4
			c10.5,0,20.7-1.3,30.4-3.8c4-1,8-2.2,11.8-3.6l11.2,30.6c-9.1,3.3-18.6,5.8-28.4,7.4C219.2,352.6,210.9,353.3,202.4,353.3z"/>
	</g>
	<path id="XMLID_2134_" class="st5" d="M46.1,197.4h33c0,0,0,0,0,0c0,34,13.8,64.9,36.1,87.2l-23.2,23.2
		C63.6,279.5,46.1,240.5,46.1,197.4z"/>
	<path id="XMLID_2131_" class="st3" d="M289.5,284.5l23,23c-15.9,15.9-35.2,28.4-56.8,36.3l-11.2-30.6
		C261.6,307,276.9,297.1,289.5,284.5z"/>
</g>
</svg>
