<?xml version="1.0" encoding="utf-8"?>
<!-- Generator: Adobe Illustrator 19.0.0, SVG Export Plug-In . SVG Version: 6.00 Build 0)  -->
<svg version="1.1" id="Layer_77" xmlns="http://www.w3.org/2000/svg" xmlns:xlink="http://www.w3.org/1999/xlink" x="0px" y="0px"
	 viewBox="0 0 400 400" style="enable-background:new 0 0 400 400;" xml:space="preserve">
<style type="text/css">
	.st0{fill:#F8F9FC;}
	.st1{fill:#B9C5D6;stroke:#2F0D00;stroke-width:1.2828;stroke-miterlimit:10;}
	.st2{fill:#99CF43;}
	.st3{fill:#EB6E7A;}
	.st4{fill:#FDC135;}
	.st5{fill:#FD9A47;}
</style>
<g id="XMLID_78_">
	<ellipse id="XMLID_893_" class="st0" cx="200" cy="200" rx="200" ry="200"/>
	<path id="XMLID_1045_" class="st1" d="M96.7,355c-1,1.4-4.9,7.4-3.7,15.6c0.9,6.5,4.5,10.6,5.9,12c0.5-0.2,1.9-1,2.8-2.8
		c1.2-2.6,0-5-0.2-5.3c-0.1-0.8-0.2-2.6,0.8-4.5c0.7-1.4,1.6-2.3,2.2-2.8c0.7,2.5,1.3,5.1,2,7.6c0.2,0.9,0.5,1.9,0.7,2.8
		c0.7-2.2,1.5-5.3,1.6-9.1c0.1-6.2-1.9-11-3.2-13.6C102.6,355,99.6,355,96.7,355z"/>
	<path id="XMLID_1039_" class="st1" d="M123.1,206c1-9.7-4.2-18.6-10.9-19.4c-6.5-0.7-12.4,6.3-12.9,15.8
		c-0.7,24.5-1.4,48.9-2.1,73.4c-0.5,5.9,1.6,11.3,4.7,13.3c4.2,2.6,10.2-1.1,12-9.2C117,255.3,120,230.6,123.1,206z"/>
	<path id="XMLID_1035_" class="st1" d="M94.9,283.7c0.9-6.2,5-11,9.4-11.4c5.2-0.6,10.1,5,10,12.6c-2.8,22.9-5.6,45.8-8.5,68.7
		c-0.8,3.3-3.3,5.4-5.8,4.9c-2.3-0.5-3.9-3-3.8-6.1C95.8,329.5,95.3,306.6,94.9,283.7z"/>
	<path id="XMLID_1274_" class="st1" d="M198,320.2c0.7,7.1,1.7,17.1,3.5,29.2c-2.5,2.7-18,18.4-42.8,18.1
		c-24.2-0.2-39.2-15.4-41.8-18.1c1.1-5.8,2.8-14.7,4-25.7c0.3-2.6,0.6-5.1,0.9-7.6h75.8C197.7,317.5,197.9,318.9,198,320.2z"/>
	<path id="XMLID_1273_" class="st1" d="M118.9,233.7c-2.1-4.8-6.5-13.7-5.9-25.8c0.4-7.9,2.8-14.2,4.7-18.1
		c2.8-1.5,7.2-3.7,12.8-5.9c9-3.6,13.3-3.9,17.1-7.9c3.6-3.8,5-8.3,5.5-11.4c4.9,0,9.7,0,14.6,0c0.4,3.4,1.6,8.5,5.5,12.3
		c3.6,3.6,7.6,3.6,14.6,6.4c3.6,1.5,8.8,4,14.8,8.4c1.4,3.6,3.1,9.1,3.1,15.8c0,10.9-4.6,19-6.1,22c-8.2,15.9-6.3,38.8-2.1,83.6
		h-75.8C126,276.8,128,254.7,118.9,233.7z"/>
	<path id="XMLID_1028_" class="st1" d="M183.1,135.8c1.8-15.3-10.4-28.2-24-28c-12.8,0.2-24.2,12-23.4,26.5
		c-0.2,0.9-3.5,19.1,9.2,30.1c5.9,5.1,12.6,6.3,15.8,6.6c2.3-0.4,11-2.2,17.3-10.2C186.5,150,183.5,137.3,183.1,135.8z"/>
	<g id="XMLID_2296_">
		<path id="XMLID_72_" class="st2" d="M261.3,306.3l16.5,28.6c-23.1,13.3-49.9,21-78.4,21c-0.1,0-0.2,0-0.3,0V323
			C221.8,323,243,316.9,261.3,306.3z"/>
	</g>
	<g id="XMLID_2293_">
		<path id="XMLID_532_" class="st3" d="M199.1,74.7v-33c0.1,0,0.2,0,0.3,0c86.8,0,157.2,70.4,157.2,157.2h-33.3
			C323.3,130.2,267.7,74.7,199.1,74.7z"/>
	</g>
	<g id="XMLID_2290_">
		<path id="XMLID_322_" class="st4" d="M306.6,261l28.7,16.6c-13.8,23.8-33.7,43.6-57.5,57.4l-16.5-28.6
			C280.1,295.4,295.8,279.8,306.6,261z"/>
	</g>
	<g id="XMLID_2287_">
		<path id="XMLID_623_" class="st5" d="M323.3,198.9C323.3,198.8,323.3,198.8,323.3,198.9l33.3-0.1c0,28.7-7.7,55.6-21.2,78.8
			L306.6,261C317.2,242.7,323.3,221.5,323.3,198.9z"/>
	</g>
</g>
</svg>
