<?xml version="1.0" encoding="utf-8"?>
<!-- Generator: Adobe Illustrator 19.0.0, SVG Export Plug-In . SVG Version: 6.00 Build 0)  -->
<svg version="1.1" xmlns="http://www.w3.org/2000/svg" xmlns:xlink="http://www.w3.org/1999/xlink" x="0px" y="0px"
	 viewBox="0 0 400 400" style="enable-background:new 0 0 400 400;" xml:space="preserve">
<style type="text/css">
	.st0{fill:#F9FAFD;}
	.st1{fill:#9575F9;stroke:#2F0D00;stroke-width:1.2828;stroke-miterlimit:10;}
</style>
<g id="Trunk2">
	<g id="XMLID_910_">
		<g id="XMLID_956_">
			<path id="XMLID_958_" class="st0" d="M200,1c26.9,0,52.9,5.3,77.4,15.6c23.7,10,45,24.4,63.2,42.6c18.3,18.3,32.6,39.6,42.6,63.3
				c10.4,24.5,15.6,50.6,15.6,77.5s-5.3,52.9-15.6,77.5c-10,23.7-24.4,45-42.6,63.3c-18.3,18.3-39.6,32.6-63.2,42.6
				C252.9,393.7,226.9,399,200,399s-52.9-5.3-77.4-15.6c-23.7-10-45-24.4-63.2-42.6c-18.3-18.3-32.6-39.6-42.6-63.3
				C6.3,252.9,1.1,226.9,1.1,200s5.3-52.9,15.6-77.5c10-23.7,24.4-45,42.6-63.3C77.6,41,98.9,26.7,122.6,16.6
				C147.1,6.3,173.2,1,200,1 M200,0C89.6,0,0.1,89.5,0.1,200s89.5,200,200,200s200-89.5,200-200S310.5,0,200,0L200,0z"/>
		</g>
		<path id="XMLID_952_" class="st1" d="M176,168c0-10.2-0.7-18.4-1.4-23.6c-2.2-18.4-5.9-26.9-6.8-45c-0.4-6.9-0.2-12.5,0-15.9
			c1.5-5.5,4-8.6,6.4-10.5c3.4-2.7,5-2.2,6.8-4.5c4.1-5.4-2-12.7,1.4-16.8c3.1-3.7,12.8-3.2,16.4,1.4c3.5,4.6-1.9,9.6,0.9,18.2
			c1.6,5.1,4.1,6.5,10.9,13.6c3.5,3.7,8,9.2,12.3,17.3c7.1,19.8,2.1,59.9-1.4,103c-1.4,17.8-17.5,29.4-31.4,26.6
			c-11-2.2-20-13.1-20.5-26.6c0.2-4.6,0.6-9.5,1.4-14.8C172.2,181.9,174,174.4,176,168z"/>
		<path id="XMLID_948_" class="st1" d="M173.3,29.4c-1.6-13.7,9.3-25.2,21.4-25c11.4,0.2,21.6,10.7,20.9,23.6
			c0.2,0.8,3.1,17.1-8.2,26.8c-5.3,4.5-11.2,5.6-14.1,5.9c-2.1-0.4-9.8-2-15.5-9.1C170.3,42.1,172.9,30.8,173.3,29.4z"/>
		<path id="XMLID_942_" class="st1" d="M172.4,90.8c-1-8.7,5.7-16.5,14.1-16.9c8.1-0.4,15.4,6.1,15.8,14.5
			c0.3,21.8,0.5,43.7,0.8,65.5c0.5,5.3-2.2,10-6.2,11.7c-5.3,2.2-12.8-1.3-14.8-8.6C178.8,134.9,175.6,112.9,172.4,90.8z"/>
		<path id="XMLID_935_" class="st1" d="M203.7,156.1c-0.8-5.6-5.2-9.8-10.2-10.2c-6-0.5-11.8,4.5-12.1,11.4
			c2.1,20.5,4.1,40.9,6.2,61.4c0.7,2.9,3.5,4.8,6.4,4.4c2.6-0.4,4.6-2.7,4.7-5.5C200.4,197.1,202,176.6,203.7,156.1z"/>
		<path id="XMLID_912_" class="st1" d="M196.3,250.3c1.8-2.5,4.7-7.2,5.9-13.8c1.4-7.9-0.3-14.2-1.3-17.2c-0.8-0.4-3.2-1.5-6-0.8
			c-3.5,1-6.2,4.5-6.4,8.9c-0.4,1.5,0.1,3,1.3,4c1.2,1,2.8,1.1,4.2,0.5c0.6,3.3,1.1,6.8,1.5,10.4
			C195.8,244.9,196.1,247.6,196.3,250.3z"/>
	</g>
</g>
<g id="Layer_47">
</g>
<g id="NeckLat3">
</g>
<g id="Layer_36">
</g>
</svg>
