<?xml version="1.0" encoding="utf-8"?>
<!-- Generator: Adobe Illustrator 19.0.0, SVG Export Plug-In . SVG Version: 6.00 Build 0)  -->
<svg version="1.1" id="Layer_37" xmlns="http://www.w3.org/2000/svg" xmlns:xlink="http://www.w3.org/1999/xlink" x="0px" y="0px"
	 viewBox="0 0 400 400" style="enable-background:new 0 0 400 400;" xml:space="preserve">
<style type="text/css">
	.st0{fill:#F8F9FC;}
	.st1{fill:#99CF43;}
	.st2{fill:#FDC135;}
	.st3{fill:#EB6E7A;}
	.st4{fill:#B9C5D6;stroke:#2F0D00;stroke-width:1.2828;stroke-miterlimit:10;}
</style>
<path id="XMLID_648_" class="st0" d="M0.1,200C0.1,89.5,89.6,0,200,0s200,89.5,200,200c0,93.9-64.7,172.6-151.9,194.2
	c-3.8-61.6-7.5-123.3-11.3-184.9c-2.9-14.8-16.7-24.8-30.9-23.1c-13.1,1.6-23.6,12.7-24.5,26.5c-7.4,61.1-14.8,122.1-22.2,183.2
	C68.4,377,0.1,296.5,0.1,200z"/>
<g id="XMLID_614_">
	<g id="XMLID_640_">
		<path id="XMLID_749_" class="st1" d="M199.4,74.6c-6.9,0-13.6,0.6-20.1,1.6l-5.4-32.5c8.4-1.4,17-2.1,25.8-2.1
			c9.8,0,19.4,0.9,28.7,2.6l-5.9,32.5C215,75.4,207.3,74.6,199.4,74.6z"/>
	</g>
	<g id="XMLID_637_">
		<path id="XMLID_750_" class="st2" d="M228.4,44.3c14,2.6,27.3,7,39.6,13l-14.2,29.9c-9.8-4.8-20.3-8.3-31.3-10.4L228.4,44.3z"/>
	</g>
	<g id="XMLID_632_">
		<path id="XMLID_751_" class="st2" d="M168.3,78.6L160,46.8c4.6-1.2,9.2-2.2,13.9-3l5.4,32.5C175.6,76.9,171.9,77.6,168.3,78.6z"/>
	</g>
	<g id="XMLID_627_">
		<path id="XMLID_752_" class="st3" d="M168.3,78.6c-17.4,4.5-33.3,12.7-46.9,23.7l-20.8-25.4c17.1-14,37.3-24.4,59.3-30.2
			L168.3,78.6z"/>
	</g>
	<g id="XMLID_616_">
		<path id="XMLID_758_" class="st3" d="M253.8,87.2L268,57.3c20.6,10,38.7,24.4,53.1,41.9l-25.5,21.2
			C284.3,106.5,270.1,95.1,253.8,87.2z"/>
	</g>
</g>
<g id="XMLID_606_">
	<path id="XMLID_607_" class="st4" d="M205.9,186.2c14.2-1.7,28,8.3,30.9,23.1c3.8,61.6,7.5,123.3,11.3,184.9
		c-15.4,3.8-31.5,5.8-48.1,5.8c-14,0-27.6-1.4-40.8-4.2c7.4-61.1,14.8-122.1,22.2-183.2C182.3,198.9,192.9,187.8,205.9,186.2z"/>
</g>
</svg>
