<?xml version="1.0" encoding="utf-8"?>
<!-- Generator: Adobe Illustrator 19.0.0, SVG Export Plug-In . SVG Version: 6.00 Build 0)  -->
<svg version="1.1" id="Layer_33" xmlns="http://www.w3.org/2000/svg" xmlns:xlink="http://www.w3.org/1999/xlink" x="0px" y="0px"
	 viewBox="0 0 400 400" style="enable-background:new 0 0 400 400;" xml:space="preserve">
<style type="text/css">
	.st0{fill:#F8F9FC;}
	.st1{fill:#99CF43;}
	.st2{fill:#FDC135;}
	.st3{fill:#EB6E7A;}
	.st4{fill:#B9C5D6;stroke:#2F0D00;stroke-width:1.2828;stroke-miterlimit:10;}
</style>
<ellipse id="XMLID_709_" class="st0" cx="200" cy="200" rx="200" ry="200"/>
<g id="XMLID_562_">
	<path id="XMLID_571_" class="st1" d="M76.2,198.8c0,18.7,4.2,36.4,11.6,52.4l-29.6,13.8c-9.4-20.1-14.6-42.5-14.6-66.2
		c0-28.6,7.6-55.4,21-78.4l28.3,16.4C82.2,154.9,76.2,176.2,76.2,198.8z"/>
	<path id="XMLID_568_" class="st2" d="M121,294.2l-20.9,25.1C82.4,304.6,68,286,58.2,264.9l29.6-13.8
		C95.5,267.9,107,282.5,121,294.2z"/>
	<path id="XMLID_567_" class="st3" d="M121,294.2c11.1,9.2,23.9,16.5,37.7,21.4l-10.8,30.9c-17.6-6.2-33.7-15.5-47.8-27.2L121,294.2
		z"/>
	<path id="XMLID_564_" class="st2" d="M92.9,136.7l-28.3-16.4c6.9-11.9,15.4-22.9,25.1-32.6l23.1,23.2
		C105,118.6,98.3,127.2,92.9,136.7z"/>
	<path id="XMLID_563_" class="st3" d="M112.7,111L89.6,87.7c16.1-16,35.6-28.6,57.4-36.5l11,31C140.8,88.4,125.4,98.3,112.7,111z"/>
</g>
<path id="XMLID_558_" class="st4" d="M350.6,169.5c15,1.4,26.7,12.7,28.2,26.1c1.9,15.9-10.9,31.9-29.1,33.5
	c-54.9-3.4-109.8-6.7-164.8-10.1c-8-1.5-13.3-9-12.4-16.6c0.9-7,6.8-12.6,14.2-13.1C241.4,182.7,296,176.1,350.6,169.5z"/>
</svg>
