<?xml version="1.0" encoding="utf-8"?>
<!-- Generator: Adobe Illustrator 19.0.0, SVG Export Plug-In . SVG Version: 6.00 Build 0)  -->
<svg version="1.1" id="Layer_83" xmlns="http://www.w3.org/2000/svg" xmlns:xlink="http://www.w3.org/1999/xlink" x="0px" y="0px"
	 viewBox="0 0 400 400" style="enable-background:new 0 0 400 400;" xml:space="preserve">
<style type="text/css">
	.st0{fill:#F8F9FC;}
	.st1{fill:#B9C5D6;stroke:#2F0D00;stroke-width:1.2828;stroke-miterlimit:10;}
	.st2{fill:#FDC135;}
	.st3{fill:#99CF43;}
</style>
<g id="XMLID_84_">
	<ellipse id="XMLID_676_" class="st0" cx="200" cy="200" rx="200" ry="200"/>
	<path id="XMLID_447_" class="st1" d="M179.7,213.7c0-12.7-0.9-22.9-1.7-29.5c-2.7-22.9-7.3-33.5-8.5-56.1c-0.4-8.6-0.2-15.6,0-19.8
		c1.9-6.9,5-10.7,7.9-13c4.2-3.3,6.3-2.8,8.5-5.7c5.2-6.7-2.5-15.8,1.7-21c3.8-4.7,16-4,20.4,1.7c4.4,5.7-2.3,11.9,1.1,22.7
		c2.1,6.3,5.1,8.1,13.6,17c4.3,4.6,10,11.5,15.3,21.5c8.9,24.7,2.6,74.6-1.7,128.3c-1.8,22.2-21.8,36.6-39.1,33.1
		c-13.7-2.7-24.9-16.4-25.5-33.1c0.2-5.7,0.8-11.8,1.7-18.4C174.9,230.9,177.2,221.6,179.7,213.7z"/>
	<path id="XMLID_443_" class="st1" d="M176.3,40.9c-2-17,11.6-31.4,26.6-31.2c14.2,0.2,26.9,13.3,26.1,29.5
		c0.2,1,3.9,21.3-10.2,33.4c-6.6,5.7-14,7-17.6,7.4c-2.6-0.5-12.2-2.5-19.3-11.3C172.5,56.8,175.8,42.6,176.3,40.9z"/>
	<path id="XMLID_148_" class="st1" d="M178.7,116.7c-0.8-10.9,7.9-20.2,18.4-20.4c10.1-0.1,18.8,8.3,18.9,18.8
		c-0.7,27.2-1.5,54.4-2.2,81.6c0.3,6.6-3.2,12.4-8.3,14.2c-6.7,2.4-15.8-2.2-18-11.4C184.5,172,181.6,144.4,178.7,116.7z"/>
	<g id="XMLID_1333_">
		<path id="XMLID_341_" class="st2" d="M259.4,308.4c-3.3,1.8-6.7,3.5-10.2,5c-15.1,6.5-31.8,10.2-49.3,10.2v33
			c16.7,0,32.8-2.6,47.9-7.5c4.9-1.6,9.6-3.3,14.2-5.3c31.3-13.5,57.4-36.9,74.2-66.3l-28.7-16.4C296.4,281,279.6,297.4,259.4,308.4
			z"/>
	</g>
	<g id="XMLID_1294_">
		<path id="XMLID_85_" class="st3" d="M324.3,199.3c0,22.5-6,43.6-16.5,61.8l28.7,16.4c13.2-23,20.8-49.8,20.8-78.2
			c0-9.4-0.8-18.6-2.4-27.5l-32.5,5.8C323.6,184.6,324.3,191.9,324.3,199.3z"/>
	</g>
	<g id="XMLID_1251_">
		<path id="XMLID_339_" class="st2" d="M242.5,82.5c5.2,1.9,10.2,4.1,15,6.6c33.5,17.5,58,49.9,64.8,88.5l32.5-5.8
			c-9.8-55.8-49-101.4-101.1-120.3l-2.1,5.8L242.5,82.5z"/>
	</g>
</g>
</svg>
