<?xml version="1.0" encoding="utf-8"?>
<!-- Generator: Adobe Illustrator 19.0.0, SVG Export Plug-In . SVG Version: 6.00 Build 0)  -->
<svg version="1.1" xmlns="http://www.w3.org/2000/svg" xmlns:xlink="http://www.w3.org/1999/xlink" x="0px" y="0px"
	 viewBox="0 0 400 400" style="enable-background:new 0 0 400 400;" xml:space="preserve">
<style type="text/css">
	.st0{fill:#F9FAFD;}
	.st1{fill:#9575F9;stroke:#2F0D00;stroke-width:1.2828;stroke-miterlimit:10;}
</style>
<g id="Layer_47">
</g>
<g id="Layer_44">
	<g id="XMLID_1652_">
		<path id="XMLID_1654_" class="st0" d="M200.1,1c26.7,0,52.6,5.2,77,15.4c23.6,9.9,44.8,24.1,63.1,42.2
			c37.5,37.2,58.5,86.8,58.9,139.6c0.2,26.9-4.8,53-15,77.6c-9.8,23.8-24,45.2-42.1,63.6c-18.1,18.4-39.3,33-62.9,43.2
			c-24.4,10.6-50.5,16.1-77.3,16.3c-0.6,0-1.2,0-1.8,0c-26.7,0-52.6-5.2-77-15.4c-23.6-9.9-44.8-24.1-63.1-42.2
			C22.4,304.1,1.5,254.6,1,201.7c-0.2-26.9,4.8-53,15-77.6c9.8-23.8,24-45.2,42.1-63.6c18.1-18.4,39.3-33,62.9-43.2
			C145.4,6.8,171.4,1.3,198.3,1C198.9,1,199.5,1,200.1,1L200.1,1 M200.1,0c-0.6,0-1.2,0-1.8,0C87.8,1-0.9,91.3,0,201.7
			C1,311.6,90.3,400,200,400c0.6,0,1.2,0,1.8,0C312.2,399,401,308.7,400,198.3C399.1,88.4,309.7,0,200.1,0L200.1,0z"/>
	</g>
	<path id="XMLID_1648_" class="st1" d="M203.9,180.9c-9.1,0.6-16.4,7.2-17.6,15.2c-1.5,9.6,5.9,19.5,16.9,20.9
		c33.3-1,66.6-1.9,99.9-2.9c4.8-0.8,8.2-5.2,7.8-9.8c-0.4-4.3-3.9-7.8-8.3-8.2C269.7,191.1,236.8,186,203.9,180.9z"/>
	<path id="XMLID_1644_" class="st1" d="M359,209.4c-4.9-4.1-14.3-10.8-27.8-14.3c-16.1-4.2-29.6-1.6-35.9,0.1
		c-1,1.6-3.6,6.5-2.5,12.4c1.5,7.4,8.4,13.4,17.4,14.6c3,1,6.3,0.2,8.4-2.1c2.2-2.3,2.8-5.6,1.6-8.6c6.9-0.7,14.2-1.2,21.7-1.6
		C347.8,209.6,353.5,209.5,359,209.4z"/>
</g>
<g id="Layer_46">
</g>
</svg>
