<?xml version="1.0" encoding="utf-8"?>
<!-- Generator: Adobe Illustrator 19.0.0, SVG Export Plug-In . SVG Version: 6.00 Build 0)  -->
<svg version="1.1" xmlns="http://www.w3.org/2000/svg" xmlns:xlink="http://www.w3.org/1999/xlink" x="0px" y="0px"
	 viewBox="0 0 400 400" style="enable-background:new 0 0 400 400;" xml:space="preserve">
<style type="text/css">
	.st0{fill:#F9FAFD;}
	.st1{fill:#2FA9F4;stroke:#2F0D00;stroke-width:1.2828;stroke-miterlimit:10;}
</style>
<g id="RUpperarmFlx2">
</g>
<g id="Layer_47">
</g>
<g id="LUpperarmAbd3">
	<g id="XMLID_79_">
		<g id="XMLID_909_">
			<path id="XMLID_1156_" class="st0" d="M200,1c26.9,0,52.9,5.3,77.4,15.6c23.7,10,45,24.4,63.2,42.6
				c18.3,18.3,32.6,39.6,42.6,63.3c10.4,24.5,15.6,50.6,15.6,77.5s-5.3,52.9-15.6,77.5c-10,23.7-24.4,45-42.6,63.3
				c-18.3,18.3-39.6,32.6-63.2,42.6C252.9,393.7,226.9,399,200,399s-52.9-5.3-77.4-15.6c-23.7-10-45-24.4-63.2-42.6
				c-18.3-18.3-32.6-39.6-42.6-63.3C6.3,252.9,1.1,226.9,1.1,200s5.3-52.9,15.6-77.5c10-23.7,24.4-45,42.6-63.3
				C77.6,41,98.9,26.7,122.6,16.6C147.1,6.3,173.2,1,200,1 M200,0C89.6,0,0.1,89.5,0.1,200s89.5,200,200,200s200-89.5,200-200
				S310.5,0,200,0L200,0z"/>
		</g>
		<path id="XMLID_1090_" class="st1" d="M222.7,355c1,1.4,4.9,7.4,3.7,15.6c-0.9,6.5-4.5,10.6-5.9,12c-0.5-0.2-1.9-1-2.8-2.8
			c-1.2-2.6,0-5,0.2-5.3c0.1-0.8,0.2-2.6-0.8-4.5c-0.7-1.4-1.6-2.3-2.2-2.8c-0.7,2.5-1.3,5.1-2,7.6c-0.2,0.9-0.5,1.9-0.7,2.8
			c-0.7-2.2-1.5-5.3-1.6-9.1c-0.1-6.2,1.9-11,3.2-13.6C216.8,355,219.7,355,222.7,355z"/>
		<path id="XMLID_1086_" class="st1" d="M196.1,205.6c-1-9.7,4.2-18.6,10.9-19.4c6.5-0.7,12.4,6.3,12.9,15.8
			c0.7,24.5,1.4,48.9,2.1,73.4c0.5,5.9-1.6,11.3-4.7,13.3c-4.2,2.6-10.2-1.1-12-9.2C202.2,254.9,199.2,230.3,196.1,205.6z"/>
		<path id="XMLID_1082_" class="st1" d="M224.3,283.3c-0.9-6.2-5-11-9.4-11.4c-5.2-0.6-10.1,5-10,12.6c2.8,22.9,5.6,45.8,8.5,68.7
			c0.8,3.3,3.3,5.4,5.8,4.9c2.3-0.5,3.9-3,3.8-6.1C223.4,329.1,223.9,306.2,224.3,283.3z"/>
	</g>
</g>
</svg>
