<?xml version="1.0" encoding="utf-8"?>
<!-- Generator: Adobe Illustrator 19.0.0, SVG Export Plug-In . SVG Version: 6.00 Build 0)  -->
<svg version="1.1" xmlns="http://www.w3.org/2000/svg" xmlns:xlink="http://www.w3.org/1999/xlink" x="0px" y="0px"
	 viewBox="0 0 400 400" style="enable-background:new 0 0 400 400;" xml:space="preserve">
<style type="text/css">
	.st0{fill:#F9FAFD;}
	.st1{fill:#9575F9;stroke:#2F0D00;stroke-width:1.2828;stroke-miterlimit:10;}
	.st2{opacity:0.59;}
	.st3{fill:#9575F9;}
</style>
<g id="Layer_47">
</g>
<g id="Layer_40">
	<g id="XMLID_1436_">
		<path id="XMLID_1438_" class="st0" d="M200,1c26.9,0,52.9,5.3,77.4,15.6c23.7,10,45,24.4,63.2,42.6s32.6,39.6,42.6,63.3
			c10.4,24.5,15.6,50.6,15.6,77.5s-5.3,52.9-15.6,77.5c-10,23.7-24.4,45-42.6,63.3s-39.6,32.6-63.2,42.6
			C252.9,393.7,226.9,399,200,399c-26.9,0-52.9-5.3-77.4-15.6c-23.7-10-45-24.4-63.2-42.6s-32.6-39.6-42.6-63.3
			C6.3,252.9,1,226.9,1,200s5.3-52.9,15.6-77.5c10-23.7,24.4-45,42.6-63.3s39.6-32.6,63.2-42.6C147.1,6.3,173.1,1,200,1 M200,0
			C89.6,0,0,89.5,0,200s89.5,200,200,200s200-89.5,200-200S310.4,0,200,0L200,0z"/>
	</g>
	<path id="XMLID_1435_" class="st1" d="M154.1,133.3c-1.3,1.8-3,4.8-3.8,8.7c-1.4,7.2,2,10.5-0.2,16.2c-1.5,3.8-3.3,3.3-5.5,8.3
		c-0.4,1-2,4.8-2.1,9.4c-0.1,7.8,3.9,8.9,5.5,17.9c1.3,7.8-1.5,8.4,0.6,13.6c2.5,6.3,6.9,5.9,9.1,12.8c0.8,2.5,1.1,5.5,1.7,10
		c0.3,2.4,0.5,4.4,0.6,5.8c3.9,3.2,15.2,11.4,31.9,12.6c14.8,1,26-4.1,30.6-6.5c0.9-1.2,2.6-3.6,3.1-7c0.9-5.3-1.3-9.5-2-10.7
		c-5,0.4-12.3,0.9-21.3,0.9c-14.2,0.1-25.5-0.9-25.5-1.1c0-0.1,10.4,0.6,25.1,0.3c9.1-0.2,16.5-0.7,21.5-1.1
		c1.1-2.7,2.9-7.9,2.3-14.4c-0.3-4-1.4-7.2-2.4-9.4c-5.5,0.1-13.4,0-22.9-0.7c-16.7-1.2-29-3.6-29-3.7c0-0.1,13,2.5,30.9,3.3
		c8.8,0.4,16.1,0.3,21.1,0.1c1.6-2.8,4-7.9,4.5-14.6c0.7-8.8-2-15.6-3.5-18.7c-1,0-18.7-0.3-33.3-2.8c0,0-6.8-1-18.6-4.1
		c0,0,0.1,0,0.3,0.1c12.7,2.8,29.1,4.6,29.1,4.6c6.1,0.6,13.7,1.3,22.5,1.6c1.2-2.5,4.1-9.6,2.5-18.5c-1.2-6.8-4.5-11.5-6.3-13.7
		c-4.5-1.1-9.9-2.1-16-2.5c-9.7-0.6-18,0.4-24.3,1.7c6.3-1.5,15-2.8,25.3-2.1c5.9,0.4,11,1.4,15.3,2.5c1.4,1.8,3.3,4.6,4.8,8.3
		c2.2,5.5,1.9,9,3.2,15.3c0.7,3.3,1.9,7.9,4.3,13.4c3.2,5.1,9.1,7.7,14.6,6.5c6.6-1.4,9.4-7.4,9.7-8c-1-3.4-2.2-8.9-2.4-15.7
		c-0.2-8.8,1.5-12.4-0.1-17.7c-1.1-3.6-4-8.5-12.3-13.2c-7.9-6.9-14.2-8.2-18.5-8.1c-5.9,0.2-7.7,2.9-17.1,4.1
		c-7,0.9-7.7-0.4-14.9,0.4c-7.6,0.8-13.2,2.9-17.7,4.7C169.2,124.1,162,127.5,154.1,133.3z"/>
	<g id="XMLID_1429_" class="st2">
		<polygon id="XMLID_1434_" class="st3" points="198.6,313.8 209.9,293.6 200.5,293.6 200.5,243.1 187.2,243.1 187.2,293.6 
			177.8,293.6 185.7,307.7 193.8,322.2 		"/>
		<rect id="XMLID_1433_" x="187.2" y="214.3" class="st3" width="13.3" height="7.4"/>
		<rect id="XMLID_1432_" x="187.2" y="200" class="st3" width="13.3" height="7.4"/>
		<rect id="XMLID_1431_" x="187.2" y="184.9" class="st3" width="13.3" height="8.1"/>
		<rect id="XMLID_1430_" x="187.2" y="228.7" class="st3" width="13.3" height="7.4"/>
	</g>
</g>
</svg>
