<?xml version="1.0" encoding="utf-8"?>
<!-- Generator: Adobe Illustrator 19.0.0, SVG Export Plug-In . SVG Version: 6.00 Build 0)  -->
<svg version="1.1" xmlns="http://www.w3.org/2000/svg" xmlns:xlink="http://www.w3.org/1999/xlink" x="0px" y="0px"
	 viewBox="0 0 400 400" style="enable-background:new 0 0 400 400;" xml:space="preserve">
<style type="text/css">
	.st0{fill:#F9FAFD;}
	.st1{fill:#9575F9;stroke:#2F0D00;stroke-width:1.2828;stroke-miterlimit:10;}
</style>
<g id="Layer_47">
</g>
<g id="LKneeFlx1">
	<g id="XMLID_1863_">
		<g id="XMLID_1872_">
			<path id="XMLID_1874_" class="st0" d="M200,1c26.9,0,52.9,5.3,77.4,15.6c23.7,10,45,24.4,63.2,42.6
				c18.3,18.3,32.6,39.6,42.6,63.3c10.4,24.5,15.6,50.6,15.6,77.5s-5.3,52.9-15.6,77.5c-10,23.7-24.4,45-42.6,63.3
				c-18.3,18.3-39.6,32.6-63.2,42.6C252.9,393.7,226.9,399,200,399s-52.9-5.3-77.4-15.6c-23.7-10-45-24.4-63.2-42.6
				c-18.3-18.3-32.6-39.6-42.6-63.3C6.3,252.9,1.1,226.9,1.1,200s5.3-52.9,15.6-77.5c10-23.7,24.4-45,42.6-63.3
				C77.6,41,98.9,26.7,122.6,16.6C147.1,6.3,173.2,1,200,1 M200,0C89.6,0,0.1,89.5,0.1,200s89.5,200,200,200s200-89.5,200-200
				S310.5,0,200,0L200,0z"/>
		</g>
		<path id="XMLID_1868_" class="st1" d="M202.9,352.1h-67.7c-0.5-0.4-2.7-2.1-3.2-5.1c-0.4-2.8,0.8-5.8,3.2-7.6
			c17.1-5.6,34.2-11.2,51.3-16.8c14.4-3.4,26.1,5.1,26.9,13.5C214,341.9,209.6,348.2,202.9,352.1z"/>
		<path id="XMLID_1864_" class="st1" d="M210.9,329.7l7.7-130.8c-2.2-7-8.8-11.7-16-11.5c-7,0.1-13.2,4.8-15.4,11.5
			c0,43.6,0,87.2,0,130.8c1.2,5.2,5.4,9,10.3,9.6C203.3,340,209.2,336,210.9,329.7z"/>
	</g>
</g>
</svg>
