<?xml version="1.0" encoding="utf-8"?>
<!-- Generator: Adobe Illustrator 19.0.0, SVG Export Plug-In . SVG Version: 6.00 Build 0)  -->
<svg version="1.1" xmlns="http://www.w3.org/2000/svg" xmlns:xlink="http://www.w3.org/1999/xlink" x="0px" y="0px"
	 viewBox="0 0 400 400" style="enable-background:new 0 0 400 400;" xml:space="preserve">
<style type="text/css">
	.st0{fill:#F9FAFD;}
	.st1{fill:#9575F9;stroke:#2F0D00;stroke-width:1.2828;stroke-miterlimit:10;}
	.st2{opacity:0.59;}
	.st3{fill:#9575F9;}
</style>
<g id="Layer_47">
</g>
<g id="NeckLat3">
	<g id="XMLID_1007_">
		<g id="XMLID_1020_">
			<path id="XMLID_1022_" class="st0" d="M200,1c26.9,0,52.9,5.3,77.4,15.6c23.7,10,45,24.4,63.2,42.6
				c18.3,18.3,32.6,39.6,42.6,63.3c10.4,24.5,15.6,50.6,15.6,77.5s-5.3,52.9-15.6,77.5c-10,23.7-24.4,45-42.6,63.3
				c-18.3,18.3-39.6,32.6-63.2,42.6C252.9,393.7,226.9,399,200,399s-52.9-5.3-77.4-15.6c-23.7-10-45-24.4-63.2-42.6
				c-18.3-18.3-32.6-39.6-42.6-63.3C6.3,252.9,1.1,226.9,1.1,200s5.3-52.9,15.6-77.5c10-23.7,24.4-45,42.6-63.3
				C77.6,41,98.9,26.7,122.6,16.6C147.1,6.3,173.2,1,200,1 M200,0C89.6,0,0.1,89.5,0.1,200s89.5,200,200,200s200-89.5,200-200
				S310.5,0,200,0L200,0z"/>
		</g>
		<path id="XMLID_1015_" class="st1" d="M178.7,169.5c-1.6-13.9,9.5-25.7,21.8-25.5c11.7,0.2,22.1,10.9,21.3,24.1
			c0.2,0.9,3.2,17.4-8.4,27.4c-5.4,4.6-11.4,5.7-14.4,6c-2.1-0.4-10-2-15.8-9.3C175.6,182.5,178.3,170.9,178.7,169.5z"/>
		<g id="XMLID_1008_" class="st2">
			<polygon id="XMLID_1013_" class="st3" points="198.5,92.5 193,102.2 197.5,102.2 197.5,126.5 203.9,126.5 203.9,102.2 
				208.5,102.2 204.7,95.4 200.7,88.4 			"/>
			<rect id="XMLID_1012_" x="197.5" y="136.8" class="st3" width="6.4" height="3.6"/>
			<rect id="XMLID_1011_" x="197.5" y="143.7" class="st3" width="6.4" height="3.6"/>
			<rect id="XMLID_1010_" x="197.5" y="150.6" class="st3" width="6.4" height="3.9"/>
			<rect id="XMLID_1009_" x="197.5" y="129.9" class="st3" width="6.4" height="3.6"/>
		</g>
	</g>
</g>
<g id="Layer_36">
</g>
</svg>
