<?xml version="1.0" encoding="utf-8"?>
<!-- Generator: Adobe Illustrator 19.0.0, SVG Export Plug-In . SVG Version: 6.00 Build 0)  -->
<svg version="1.1" id="Layer_70" xmlns="http://www.w3.org/2000/svg" xmlns:xlink="http://www.w3.org/1999/xlink" x="0px" y="0px"
	 viewBox="0 0 400 400" style="enable-background:new 0 0 400 400;" xml:space="preserve">
<style type="text/css">
	.st0{fill:#F8F9FC;}
	.st1{fill:#B9C5D6;stroke:#2F0D00;stroke-width:1.2828;stroke-miterlimit:10;}
	.st2{fill:#EB6E7A;}
	.st3{fill:#FDC135;}
	.st4{fill:#99CF43;}
</style>
<g id="XMLID_106_">
	<ellipse id="XMLID_1052_" class="st0" cx="200" cy="200" rx="200" ry="200"/>
	<path id="XMLID_1044_" class="st1" d="M162.9,37.8c3.3-12.8,15-21.7,28-21.4c12.5,0.3,23.4,9.1,26.5,21.4
		c-0.9,49.2-1.9,98.5-2.8,147.7c-1.2,8.8-8.7,15.3-17.5,15.4c-8.9,0.1-16.5-6.6-17.7-15.4C173.9,136.3,168.4,87,162.9,37.8z"/>
	<g id="XMLID_2527_">
		<path id="XMLID_514_" class="st2" d="M76.4,199.9c0-45.4,24.7-85.1,61.3-106.3l-16.4-28.4c-46.5,26.9-77.8,77.1-77.8,134.7
			c0,28.4,7.6,55,20.9,77.9l28.4-16.4C82.4,243.2,76.4,222.3,76.4,199.9z"/>
	</g>
	<g id="XMLID_2524_">
		<path id="XMLID_304_" class="st3" d="M92.9,261.3l-28.4,16.4c13.7,23.6,33.4,43.2,57,56.8l16.3-28.3
			C119.2,295.4,103.7,279.9,92.9,261.3z"/>
	</g>
	<g id="XMLID_2521_">
		<path id="XMLID_37_" class="st4" d="M137.8,306.2l-16.3,28.3c22.8,13.2,49.3,20.7,77.5,20.7c0.1,0,0.1,0,0.2,0l0-32.6
			C176.8,322.7,155.9,316.7,137.8,306.2z"/>
	</g>
</g>
</svg>
