<?xml version="1.0" encoding="utf-8"?>
<!-- Generator: Adobe Illustrator 19.0.0, SVG Export Plug-In . SVG Version: 6.00 Build 0)  -->
<svg version="1.1" xmlns="http://www.w3.org/2000/svg" xmlns:xlink="http://www.w3.org/1999/xlink" x="0px" y="0px"
	 viewBox="0 0 400 400" style="enable-background:new 0 0 400 400;" xml:space="preserve">
<style type="text/css">
	.st0{fill:#F9FAFD;}
	.st1{fill:#2FA9F4;stroke:#2F0D00;stroke-width:1.2828;stroke-miterlimit:10;}
	.st2{opacity:0.59;}
	.st3{fill:#2FA9F4;}
</style>
<g id="RLowerarmFlx2">
</g>
<g id="Layer_47">
</g>
<g id="NeckRot3">
	<g id="XMLID_87_">
		<g id="XMLID_1232_">
			<path id="XMLID_1245_" class="st0" d="M200,1c26.9,0,52.9,5.3,77.4,15.6c23.7,10,45,24.4,63.2,42.6
				c18.3,18.3,32.6,39.6,42.6,63.3c10.4,24.5,15.6,50.6,15.6,77.5s-5.3,52.9-15.6,77.5c-10,23.7-24.4,45-42.6,63.3
				c-18.3,18.3-39.6,32.6-63.2,42.6C252.9,393.7,226.9,399,200,399s-52.9-5.3-77.4-15.6c-23.7-10-45-24.4-63.2-42.6
				c-18.3-18.3-32.6-39.6-42.6-63.3C6.3,252.9,1.1,226.9,1.1,200s5.3-52.9,15.6-77.5c10-23.7,24.4-45,42.6-63.3
				C77.6,41,98.9,26.7,122.6,16.6C147.1,6.3,173.2,1,200,1 M200,0C89.6,0,0.1,89.5,0.1,200s89.5,200,200,200s200-89.5,200-200
				S310.5,0,200,0L200,0z"/>
		</g>
		<path id="XMLID_102_" class="st1" d="M149.2,209.2c-4.2-2-6.4-6.3-5.6-10.3c0.8-4,4.5-5.9,5-6.2c11-36.2,21-45.9,28.3-47.6
			c1.9-0.4,8.5-1.6,15.1-6.5c4.2-3.2,6.8-6.8,8.4-9.3c2.2,3,5.7,7.4,11.2,11.2c6.4,4.5,11.9,5.8,14.4,6.7c7,2.7,15.3,12.2,19.6,43.6
			c0.5,0.3,4.6,2.5,5.3,7.2c0.6,4.2-1.7,8.5-5.9,10.6c-0.4,4-2.8,21.7-18,34.2c-3.1,2.6-13.3,10.6-28.4,10.9
			c-12,0.2-20.7-4.7-23.9-6.5C154.9,235.6,150.1,213.5,149.2,209.2z"/>
		<g id="XMLID_88_" class="st2">
			<polygon id="XMLID_101_" class="st3" points="195.1,93.4 183.7,113.6 193.2,113.6 193.2,164.1 206.5,164.1 206.5,113.6 
				215.9,113.6 208,99.5 199.8,85 			"/>
			<rect id="XMLID_100_" x="193.2" y="185.4" class="st3" width="13.3" height="7.4"/>
			<rect id="XMLID_99_" x="193.2" y="199.8" class="st3" width="13.3" height="7.4"/>
			<rect id="XMLID_98_" x="193.2" y="214.2" class="st3" width="13.3" height="8.1"/>
			<rect id="XMLID_97_" x="193.2" y="171.1" class="st3" width="13.3" height="7.4"/>
		</g>
	</g>
</g>
</svg>
