<?xml version="1.0" encoding="utf-8"?>
<!-- Generator: Adobe Illustrator 19.0.0, SVG Export Plug-In . SVG Version: 6.00 Build 0)  -->
<svg version="1.1" id="Layer_45" xmlns="http://www.w3.org/2000/svg" xmlns:xlink="http://www.w3.org/1999/xlink" x="0px" y="0px"
	 viewBox="0 0 400 400" style="enable-background:new 0 0 400 400;" xml:space="preserve">
<style type="text/css">
	.st0{fill:#F8F9FC;}
	.st1{fill:#99CF43;}
	.st2{fill:#FDC135;}
	.st3{fill:#EB6E7A;}
	.st4{fill:#B9C5D6;stroke:#2F0D00;stroke-width:1.2828;stroke-miterlimit:10;}
	.st5{fill:#7B92A9;stroke:#2F0D00;stroke-width:1.2828;stroke-miterlimit:10;}
</style>
<ellipse id="XMLID_812_" class="st0" cx="200" cy="200" rx="200" ry="200"/>
<g id="XMLID_791_">
	<g id="XMLID_809_">
		<path id="XMLID_811_" class="st1" d="M76.4,202.8c0,11.1,1.5,21.9,4.2,32.2l-31.8,8.6c-3.5-13.1-5.4-26.9-5.4-41.1
			c0-28.7,7.7-55.6,21.2-78.8l28.6,16.6C82.6,158.7,76.4,180.1,76.4,202.8z"/>
	</g>
	<g id="XMLID_806_">
		<path id="XMLID_808_" class="st2" d="M92.9,264.6l-28.4,16.5c-6.7-11.6-12-24.2-15.6-37.4l31.8-8.6
			C83.4,245.5,87.6,255.4,92.9,264.6z"/>
	</g>
	<g id="XMLID_799_">
		<path id="XMLID_805_" class="st3" d="M64.5,281.1l28.4-16.4c14.6,25.3,37.9,45,65.8,54.9L148,350.4
			C112.6,337.9,83,313.1,64.5,281.1z"/>
	</g>
	<g id="XMLID_795_">
		<path id="XMLID_797_" class="st2" d="M93.3,140.4l-28.6-16.6c13.9-23.8,33.8-43.7,57.8-57.4l16.4,28.9
			C119.9,106.1,104.2,121.7,93.3,140.4z"/>
	</g>
	<g id="XMLID_792_">
		<path id="XMLID_794_" class="st3" d="M200.3,78.9c-22.4,0-43.4,5.9-61.5,16.3l-16.4-28.9c22.9-13.1,49.5-20.6,77.8-20.6
			c9.2,0,18.2,0.8,27,2.3l-5.9,32.6C214.5,79.6,207.5,78.9,200.3,78.9z"/>
	</g>
</g>
<path id="XMLID_784_" class="st4" d="M229.8,298c0-14.4,1-26,1.9-33.5c3.1-26.1,8.3-38.1,9.7-63.7c0.5-9.8,0.3-17.8,0-22.5
	c-2.1-7.8-5.7-12.2-9-14.8c-4.8-3.8-7.1-3.1-9.7-6.4c-5.9-7.7,2.9-18-1.9-23.8c-4.4-5.3-18.1-4.6-23.2,1.9c-5,6.5,2.7,13.5-1.3,25.7
	c-2.3,7.2-5.8,9.2-15.4,19.3c-4.9,5.2-11.4,13-17.4,24.4c-10.1,28-2.9,84.8,1.9,145.7c2,25.2,24.7,41.6,44.4,37.7
	c15.5-3.1,28.3-18.6,29-37.7c-0.3-6.4-0.9-13.4-1.9-20.9C235.2,317.7,232.6,307.1,229.8,298z"/>
<path id="XMLID_780_" class="st4" d="M233.7,101.8c2.2-19.3-13.1-35.6-30.2-35.4c-16.2,0.2-30.6,15.1-29.6,33.5
	c-0.2,1.2-4.4,24.2,11.6,38c7.4,6.4,15.9,7.9,19.9,8.4c3-0.5,13.9-2.8,21.9-12.9C237.9,119.8,234.1,103.7,233.7,101.8z"/>
<path id="XMLID_779_" class="st5" d="M230.8,186c-0.5-9.7-8.6-21.2-18.9-21.3c-10.9-0.1-17.4,12.7-19.5,19.6
	c-3.1,10.8-0.6,25.8,7.4,29.1C210.4,217.9,231.8,202.8,230.8,186z"/>
</svg>
